<?xml version="1.0" encoding="UTF-8"?>
<svg width="125px" height="23px" viewBox="0 0 125 23" version="1.1" xmlns="http://www.w3.org/2000/svg" xmlns:xlink="http://www.w3.org/1999/xlink">
    <title>UCDavis_CAES_logo_white Copy</title>
    <defs>
        <polygon id="path-1" points="0 0 8.3638951 0 8.3638951 4.32894636 0 4.32894636"></polygon>
    </defs>
    <g id="Style-guide" stroke="none" stroke-width="1" fill="none" fill-rule="evenodd">
        <g id="UCDavis_CAES_logo_white-Copy">
            <path d="M15.3083395,8.73808835 C15.4510009,6.18404299 14.9746672,3.74190401 14.016926,1.55147935 C13.8115891,1.0813526 13.5761083,0.628326816 13.327794,0.183701512 L0,0.183701512 L0,22.9888994 L3.83932153,22.9888994 C10.1364177,21.260201 14.9206469,15.6504817 15.3083395,8.73808835" id="Fill-1" fill="#FFFFFE"></path>
            <path d="M14.8743864,0.183701512 C16.2571271,2.10651094 17.2703809,4.34223818 17.7732771,6.81797907 C19.0232055,12.9755295 16.8385169,19.0331742 12.5422612,22.9888994 L22.6876325,22.9888994 L22.6876325,0.183701512 L14.8743864,0.183701512" id="Fill-2" fill="#FFFFFE"></path>
            <path d="M69.1677769,7.70842975 L69.9789768,5.55400714 L70.1192506,5.67671412 C70.6164761,6.08443733 71.2912823,6.43125706 71.9278862,6.44505785 C72.4973378,6.4582586 72.7751991,6.30584993 72.6996901,5.82132235 C72.6438791,5.45980178 72.2373837,5.39589814 71.9831003,5.34579529 L71.4264822,5.23388892 C70.3430916,5.03017733 69.4319093,4.3584391 69.4319093,3.08516664 C69.4319093,1.16025709 71.082364,0.0807956559 72.7423691,0.0807956559 C73.6141553,0.0807956559 74.4149094,0.304008359 75.1631354,0.793936241 L74.4602745,2.70294488 C74.0740741,2.42332897 73.4905951,2.03000659 72.7513228,2.00330507 C72.5083806,1.99400454 71.9514641,2.12271186 72.1296416,2.69004415 C72.2066429,2.93185791 72.5513581,3.0335637 72.7635594,3.08516664 L73.3927019,3.23787533 C74.5659275,3.51269097 75.415628,4.18472921 75.415628,5.55940745 C75.415628,7.49451757 73.755026,8.45187206 72.1060636,8.45187206 C71.1432487,8.45187206 70.0288188,8.17645638 69.1677769,7.70842975" id="Fill-3" fill="#FFFFFE"></path>
            <polygon id="Fill-4" fill="#FFFFFE" points="65.7447997 8.33006513 68.5708675 8.33006513 68.5708675 0.213103186 65.7447997 0.213103186"></polygon>
            <polyline id="Fill-5" fill="#FFFFFE" points="62.5579002 0.212803169 65.4523141 0.212803169 62.4955232 8.33006513 60.146983 8.33006513 57.1997426 0.212803169 60.0843075 0.212803169 61.3217008 5.11118194 62.5579002 0.212803169"></polyline>
            <path d="M54.5560307,2.55593652 L54.5560307,2.55593652 C54.6073649,2.90125617 55.1135441,5.38569756 55.1135441,5.38569756 L54.0023972,5.38569756 L54.5560307,2.55593652 Z M50.3436408,8.33006513 L53.2801368,8.33006513 L53.5036793,7.31060711 L55.5988315,7.31060711 L55.8769913,8.33006513 L58.815278,8.33006513 L56.0650178,0.213103186 L52.9846666,0.213103186 L50.3436408,8.33006513 L50.3436408,8.33006513 Z" id="Fill-6" fill="#FFFFFE"></path>
            <g id="Group-10" transform="translate(33.8376, 0)" fill="#FFFFFE">
                <path d="M9.24523189,0.212803169 L12.1399442,0.212803169 C14.7236667,0.212803169 16.6970494,1.40507102 16.6970494,4.38874082 C16.6970494,6.79247762 15.0889753,8.33006513 12.8296731,8.33006513 L9.24523189,8.32556487 L9.24523189,0.212803169 Z M12.0904007,5.99953249 L12.2799195,5.99953249 C13.2113967,5.99953249 13.9026178,5.43760051 13.9026178,4.37824023 C13.9026178,3.23787533 13.2904872,2.60183913 12.2670859,2.60183913 L12.0904007,2.60183913 L12.0904007,5.99953249 L12.0904007,5.99953249 Z" id="Fill-7"></path>
                <path d="M7.5550828,0.467517664 L7.70610089,1.79989349 C7.74131855,2.11581147 7.92128675,2.87425463 7.69863952,2.77284886 C7.56015653,2.71044531 7.44584838,2.36662574 7.33243558,2.06090835 C7.27483382,1.90579952 6.99965857,1.17255779 6.92773098,1.11855472 C6.57943432,0.857239844 5.71182645,0.562023043 5.12476601,0.559322889 C3.34478206,0.552722514 2.16737818,1.87279764 2.16737818,4.21563097 C2.16737818,5.89572659 2.96723683,7.91124129 5.00299649,7.91124129 C5.73241982,7.91124129 7.12918792,7.68052816 7.50971769,6.63736879 C7.6816276,6.16514192 7.83861479,5.74541803 7.95232604,5.87322531 C8.03708718,5.96593058 7.92695739,6.3439521 7.87622008,6.54766369 C7.63626249,7.51461872 7.62313048,7.8077354 7.54762144,7.84523753 C6.62808244,8.30996398 5.44829093,8.46267267 4.4162345,8.46267267 C1.13323258,8.46267267 0,6.53746311 0,4.61285358 C0,1.27276349 2.04113184,-0.134016569 5.20445342,0.00999162644 C6.00490898,0.0399933338 6.805663,0.183101478 7.5550828,0.467517664" id="Fill-9"></path>
            </g>
            <path d="M31.7006666,0.615726099 L31.1747894,0.431215599 C30.9989996,0.271606515 31.213887,0.226903971 31.213887,0.226903971 C31.213887,0.226903971 31.9734542,0.368812047 33.8659556,0.207102844 C33.8659556,0.207102844 34.0301057,0.240404739 33.9169914,0.374212354 L33.2956087,0.641827585 C32.8912025,0.819137675 32.8912025,0.717431887 32.8912025,1.16295724 L32.8876211,5.29959266 C32.8876211,8.5352768 29.6144681,8.46267267 28.9766704,8.46267267 C28.672545,8.46267267 25.6700905,8.46267267 25.6700905,5.86542486 L25.6700905,1.48607563 C25.6700905,0.722832195 25.7515687,0.742633321 25.499076,0.65352825 L24.7398072,0.367011945 C24.7398072,0.367011945 24.6108747,0.183701512 24.840088,0.195402178 C25.4608738,0.226903971 26.3592225,0.360411569 28.4725804,0.207102844 C28.4725804,0.207102844 28.6567269,0.252405422 28.5355543,0.38591302 L27.9037257,0.565023214 C27.4229151,0.781635541 27.486486,0.615726099 27.4736524,1.11225436 L27.4888736,5.42980007 C27.4888736,6.48856033 28.0308674,7.79963494 29.7353423,7.79963494 C32.0555293,7.79963494 32.0776149,5.78202012 32.0776149,5.33319457 L32.0814949,1.05615116 C32.1062666,0.65352825 32.0555293,0.768134773 31.7006666,0.615726099" id="Fill-11" fill="#FFFFFE"></path>
            <polygon id="Fill-12" fill="#FFFFFE" points="25.6706874 10.4673868 124.970453 10.4673868 124.970453 10.1283675 25.6706874 10.1283675"></polygon>
            <path d="M28.5624152,13.8644801 C28.5083949,13.7903759 28.4463164,13.7255722 28.3773733,13.670369 C28.3081318,13.6145659 28.2338166,13.5683632 28.1538307,13.5302611 C28.0741433,13.4924589 27.9908744,13.4639573 27.9031288,13.4444562 C27.8156815,13.4252551 27.7270405,13.4153545 27.6378025,13.4153545 C27.476637,13.4153545 27.3294988,13.4444562 27.1960895,13.5026595 C27.0632772,13.5605628 26.9492675,13.6409674 26.8549558,13.7429732 C26.7603456,13.844979 26.6866273,13.9646858 26.6340993,14.1020936 C26.5818697,14.2392014 26.5556057,14.3874099 26.5556057,14.5458189 C26.5556057,14.7078281 26.5818697,14.8563365 26.6340993,14.9919443 C26.6866273,15.127552 26.761241,15.2442586 26.8573434,15.3420642 C26.9537443,15.4395697 27.0695447,15.5163741 27.2041478,15.5715772 C27.3390493,15.6267804 27.4885752,15.654382 27.6536206,15.654382 C27.7392771,15.654382 27.8243367,15.6447814 27.9093963,15.6243802 C27.9944559,15.6042791 28.075934,15.5751774 28.1538307,15.5373753 C28.2317274,15.4992731 28.3054457,15.4539706 28.3743888,15.4011675 C28.4436303,15.3483645 28.5066042,15.2886611 28.5624152,15.2217573 L28.5624152,16.4920296 C28.4746696,16.5181311 28.3925945,16.5433325 28.3155932,16.5673339 C28.2385919,16.5907352 28.1630828,16.6111364 28.0893645,16.6279374 C28.0159446,16.6447383 27.9422263,16.6579391 27.8673142,16.6675396 C27.792999,16.6774402 27.7145054,16.6822405 27.6327288,16.6822405 C27.3485999,16.6822405 27.0767076,16.6300375 26.8167536,16.5262316 C26.5565011,16.4224257 26.3207218,16.2745172 26.1085205,16.0825063 C25.8846795,15.8784947 25.7199325,15.6462815 25.6148764,15.3867667 C25.5098204,15.127252 25.4572923,14.8449359 25.4572923,14.5407186 C25.4572923,14.2605026 25.5083281,13.9919873 25.6098027,13.7351727 C25.7112773,13.4780581 25.8602062,13.2491451 26.0562909,13.0484337 C26.1562733,12.9464278 26.2655077,12.8543226 26.3845911,12.7724179 C26.5036746,12.6908133 26.6296225,12.6209093 26.7618379,12.5636061 C26.8934564,12.5066028 27.0307456,12.4628003 27.1728101,12.4330986 C27.3145761,12.4030969 27.456342,12.3880961 27.598108,12.3880961 C27.7682272,12.3880961 27.9320789,12.4063971 28.0893645,12.4423992 C28.2472471,12.4787012 28.4048311,12.5291041 28.5624152,12.5945078 L28.5624152,13.8644801" id="Fill-13" fill="#FFFFFE"></path>
            <path d="M31.6021766,13.388953 C31.4445925,13.388953 31.2962605,13.4183547 31.1580759,13.4774581 C31.0198914,13.5365614 30.8984203,13.6157659 30.7942596,13.7153716 C30.6903974,13.8146773 30.6077254,13.9292838 30.5474376,14.0582911 C30.4871497,14.1878985 30.4567074,14.3232062 30.4567074,14.4639142 C30.4567074,14.6400242 30.4871497,14.8023335 30.5474376,14.9511419 C30.6077254,15.0996504 30.6903974,15.2280577 30.7942596,15.3363639 C30.8984203,15.44467 31.0198914,15.5292748 31.1580759,15.5898783 C31.2962605,15.6507818 31.4445925,15.6813835 31.6021766,15.6813835 C31.7594622,15.6813835 31.9080927,15.6507818 32.0471726,15.5898783 C32.1865509,15.5292748 32.308022,15.44467 32.4109889,15.3363639 C32.5142542,15.2280577 32.5963292,15.0996504 32.6563186,14.9511419 C32.7172034,14.8023335 32.7476458,14.6400242 32.7476458,14.4639142 C32.7476458,14.3232062 32.7172034,14.1878985 32.6563186,14.0582911 C32.5963292,13.9292838 32.5142542,13.8146773 32.4109889,13.7153716 C32.308022,13.6157659 32.1865509,13.5365614 32.0471726,13.4774581 C31.9080927,13.4183547 31.7594622,13.388953 31.6021766,13.388953 M31.6021766,12.3616946 C31.7964706,12.3616946 31.9868847,12.3850959 32.1734189,12.4318986 C32.3599531,12.4787012 32.5363398,12.544705 32.7025791,12.6311099 C32.8691169,12.7172148 33.0225226,12.8228208 33.1624979,12.9467279 C33.3027716,13.0709349 33.4230488,13.2107429 33.5236281,13.3667518 C33.6245058,13.5224606 33.7032978,13.6919703 33.7603027,13.8749807 C33.8170091,14.0579911 33.8456607,14.2527022 33.8456607,14.4585139 C33.8456607,14.7894327 33.7901481,15.09275 33.6788245,15.3681657 C33.5675009,15.6438814 33.412006,15.8805948 33.2123398,16.0786061 C33.0126736,16.2769174 32.775999,16.4311262 32.5017191,16.5421325 C32.2277377,16.6528388 31.9277907,16.7083419 31.6021766,16.7083419 C31.3846031,16.7083419 31.1786693,16.6834405 30.9834799,16.6333377 C30.7882905,16.5832348 30.6077254,16.5112307 30.4420831,16.4179254 C30.2767392,16.3249201 30.1272133,16.2112136 29.9932072,16.0786061 C29.8589025,15.9456985 29.7451913,15.79569 29.6514765,15.6285805 C29.5580602,15.461171 29.4855357,15.2790606 29.4350968,15.0831494 C29.3843595,14.8866383 29.3586924,14.6787264 29.3586924,14.4585139 C29.3586924,14.2527022 29.3873441,14.0579911 29.4440505,13.8749807 C29.5010553,13.6919703 29.5801458,13.5224606 29.6819189,13.3667518 C29.7833935,13.2107429 29.9036708,13.0709349 30.0430491,12.9467279 C30.182129,12.8228208 30.3352363,12.7172148 30.5014756,12.6311099 C30.6677148,12.544705 30.8441016,12.4787012 31.0306358,12.4318986 C31.2174684,12.3850959 31.4075841,12.3616946 31.6021766,12.3616946" id="Fill-14" fill="#FFFFFE"></path>
            <polyline id="Fill-15" fill="#FFFFFE" points="35.804419 15.6759832 37.0707624 15.6759832 37.0707624 16.5739343 34.7508739 16.5739343 34.7508739 12.4964022 35.804419 12.4964022 35.804419 15.6759832"></polyline>
            <polyline id="Fill-16" fill="#FFFFFE" points="39.0707075 15.6759832 40.3370509 15.6759832 40.3370509 16.5739343 38.0171623 16.5739343 38.0171623 12.4964022 39.0707075 12.4964022 39.0707075 15.6759832"></polyline>
            <polyline id="Fill-17" fill="#FFFFFE" points="42.336996 13.3943533 42.336996 14.0753921 43.5266365 14.0753921 43.5266365 14.9736432 42.336996 14.9736432 42.336996 15.6759832 43.592595 15.6759832 43.592595 16.5733343 41.2834508 16.5733343 41.2834508 12.4964022 43.592595 12.4964022 43.592595 13.3943533 42.336996 13.3943533"></polyline>
            <path d="M48.7871994,14.2974047 C48.7842148,14.4453131 48.7776488,14.5887213 48.7689937,14.7279292 C48.7603385,14.8668371 48.7412374,15.0030449 48.7122873,15.1359525 C48.6839341,15.26856 48.6424489,15.3993674 48.5890255,15.5265747 C48.5356021,15.654382 48.4630776,15.7815892 48.3723473,15.9084964 C48.272365,16.0474043 48.1610414,16.1674112 48.0389734,16.2685169 C47.9160101,16.3699227 47.7837946,16.4533274 47.6417302,16.5184311 C47.5002626,16.5832348 47.3504384,16.6315376 47.1931527,16.6621393 C47.0349717,16.6930411 46.8711201,16.7083419 46.7015978,16.7083419 C46.3828482,16.7083419 46.090661,16.656439 45.8256332,16.5529331 C45.560307,16.4488272 45.3319891,16.3024188 45.1412765,16.1131081 C44.9502655,15.9234973 44.8019335,15.6972844 44.6956836,15.4329694 C44.5897322,15.1689543 44.5369057,14.8767377 44.5369057,14.5560194 C44.5369057,14.2251006 44.5903291,13.9244835 44.6971759,13.6544681 C44.8040227,13.3844528 44.9544439,13.1537396 45.1475441,12.9626288 C45.3409427,12.7718179 45.5728421,12.6239095 45.8426451,12.5189035 C46.1121497,12.4141976 46.4106045,12.3616946 46.7383077,12.3616946 C47.155249,12.3616946 47.5202591,12.4565 47.8336366,12.6458107 C48.1473125,12.8351215 48.3914484,13.1207378 48.5666414,13.5026595 L47.5662211,13.9226834 C47.5292127,13.8257779 47.4826538,13.7378729 47.4268428,13.6586684 C47.3701364,13.5791639 47.3056702,13.51076 47.2322503,13.4537567 C47.158532,13.3964535 47.0764569,13.352651 46.9851298,13.3217492 C46.8941011,13.2911475 46.7953126,13.2758466 46.6887643,13.2758466 C46.5153621,13.2758466 46.3622548,13.3133487 46.2312332,13.389253 C46.0999131,13.4648573 45.9900818,13.563863 45.9014407,13.6859699 C45.8130981,13.8086769 45.7465427,13.9463848 45.7020729,14.0993935 C45.6573047,14.2527022 45.6349206,14.4066109 45.6349206,14.5617198 C45.6349206,14.7201288 45.6582001,14.8752376 45.7044606,15.0279463 C45.7510195,15.1797549 45.8193657,15.3162627 45.909499,15.4368696 C45.9996323,15.5574764 46.1115528,15.654382 46.2458574,15.7275861 C46.3795652,15.8007903 46.5335678,15.8370924 46.70697,15.8370924 C46.8203828,15.8370924 46.9269311,15.8223915 47.0260181,15.7920898 C47.1248066,15.7620881 47.2113585,15.7173855 47.2859722,15.6588822 C47.3602874,15.5997788 47.4211721,15.5262747 47.468328,15.4380696 C47.5157823,15.3501646 47.5447324,15.2472588 47.5551783,15.1293521 L46.693838,15.1293521 L46.693838,14.2974047 L48.7871994,14.2974047" id="Fill-18" fill="#FFFFFE"></path>
            <polyline id="Fill-19" fill="#FFFFFE" points="50.7331242 13.3943533 50.7331242 14.0753921 51.9230631 14.0753921 51.9230631 14.9736432 50.7331242 14.9736432 50.7331242 15.6759832 51.9887232 15.6759832 51.9887232 16.5733343 49.679579 16.5733343 49.679579 12.4964022 51.9887232 12.4964022 51.9887232 13.3943533 50.7331242 13.3943533"></polyline>
            <path d="M56.4136129,14.2998049 C56.3010954,14.2998049 56.1954425,14.3208061 56.096654,14.3628085 C55.9978655,14.4054109 55.9110151,14.4615141 55.8369984,14.5329181 C55.7623847,14.6040222 55.7035891,14.6856268 55.6606116,14.7777321 C55.6173357,14.8701373 55.5961454,14.9670428 55.5961454,15.0669485 C55.5961454,15.1932557 55.6173357,15.3087623 55.6606116,15.4152683 C55.7035891,15.5214744 55.7623847,15.6129796 55.8369984,15.690684 C55.9110151,15.7674884 55.9978655,15.8280918 56.096654,15.8715943 C56.1954425,15.9147968 56.3010954,15.936698 56.4136129,15.936698 C56.5261303,15.936698 56.6320817,15.9147968 56.7314672,15.8715943 C56.831151,15.8280918 56.9177029,15.7674884 56.9914212,15.690684 C57.0651395,15.6129796 57.1233382,15.5214744 57.1666141,15.4152683 C57.2095916,15.3087623 57.2313788,15.1932557 57.2313788,15.0669485 C57.2313788,14.9670428 57.2095916,14.8701373 57.1666141,14.7777321 C57.1233382,14.6856268 57.0651395,14.6040222 56.9914212,14.5329181 C56.9177029,14.4615141 56.831151,14.4054109 56.7314672,14.3628085 C56.6320817,14.3208061 56.5261303,14.2998049 56.4136129,14.2998049 M56.4136129,13.5665631 C56.5523943,13.5665631 56.6881912,13.5830641 56.821302,13.616366 C56.9547113,13.6499679 57.0803607,13.6970706 57.1994442,13.7588741 C57.3179307,13.8200776 57.4280605,13.8950818 57.5277444,13.9841869 C57.6274282,14.0726919 57.7139801,14.1722976 57.7856092,14.283904 C57.8572384,14.3952103 57.9133479,14.5161172 57.9545346,14.6469246 C57.994826,14.777432 58.0151209,14.91634 58.0151209,15.0633483 C58.0151209,15.2997618 57.9754264,15.5166741 57.8960375,15.7128853 C57.8166485,15.9093965 57.7062203,16.0789061 57.5632605,16.2205142 C57.4208976,16.3615222 57.2519722,16.4722285 57.0558874,16.551433 C56.8601011,16.6303375 56.6464076,16.6699398 56.4136129,16.6699398 C56.2584164,16.6699398 56.1112782,16.6525388 55.9718999,16.6162367 C55.8322231,16.5802346 55.7035891,16.5295318 55.585401,16.4620279 C55.467213,16.3960242 55.3603662,16.3153196 55.2645622,16.2205142 C55.1690567,16.1251087 55.087877,16.0180027 55.0207247,15.8985959 C54.9541693,15.7794891 54.9025366,15.6492817 54.8664236,15.5097737 C54.8297137,15.3690657 54.8118064,15.2205573 54.8118064,15.0633483 C54.8118064,14.91634 54.8321013,14.777432 54.8732881,14.6469246 C54.9135795,14.5161172 54.9699874,14.3952103 55.0425119,14.283904 C55.1150364,14.1722976 55.2012898,14.0726919 55.3003768,13.9841869 C55.3997622,13.8950818 55.5089966,13.8200776 55.6277816,13.7588741 C55.7465666,13.6970706 55.8725145,13.6499679 56.0056253,13.616366 C56.1390345,13.5830641 56.274533,13.5665631 56.4136129,13.5665631" id="Fill-20" fill="#FFFFFE"></path>
            <polyline id="Fill-21" fill="#FFFFFE" points="59.2671385 14.3037051 59.2671385 14.7900328 60.094455 14.7900328 60.094455 15.4311693 59.2671385 15.4311693 59.2671385 16.5739343 58.5150326 16.5739343 58.5150326 13.6628686 60.1786192 13.6628686 60.1786192 14.3037051 59.2671385 14.3037051"></polyline>
            <path d="M64.6103733,13.7561739 L64.6002259,13.7561739 L64.1638851,15.0552479 L65.0410435,15.0552479 L64.6103733,13.7561739 Z M63.8722948,15.865894 L63.5938366,16.5733343 L62.4749298,16.5733343 L64.0352511,12.4964022 L65.185794,12.4964022 L66.7147776,16.5733343 L65.5904986,16.5733343 L65.3251724,15.865894 L63.8722948,15.865894 L63.8722948,15.865894 Z" id="Fill-22" fill="#FFFFFE"></path>
            <path d="M71.5539224,14.2974047 C71.550341,14.4453131 71.5440734,14.5887213 71.5357167,14.7279292 C71.526763,14.8668371 71.5079604,15.0030449 71.4790103,15.1359525 C71.4503586,15.26856 71.4088734,15.3993674 71.3557485,15.5265747 C71.3020266,15.654382 71.2298006,15.7815892 71.1387719,15.9084964 C71.039088,16.0474043 70.9277644,16.1674112 70.805398,16.2685169 C70.6827331,16.3699227 70.5505176,16.4533274 70.4084532,16.5184311 C70.2669857,16.5832348 70.1171614,16.6315376 69.9595773,16.6621393 C69.8013963,16.6930411 69.6378431,16.7083419 69.4683208,16.7083419 C69.1492727,16.7083419 68.8570856,16.656439 68.5920578,16.5529331 C68.3264331,16.4488272 68.0984137,16.3024188 67.9077011,16.1131081 C67.7169885,15.9234973 67.5686565,15.6972844 67.4627051,15.4329694 C67.3561568,15.1689543 67.3036287,14.8767377 67.3036287,14.5560194 C67.3036287,14.2251006 67.3570521,13.9244835 67.4636005,13.6544681 C67.5707457,13.3844528 67.7208684,13.1537396 67.9142671,12.9626288 C68.1079642,12.7718179 68.3395651,12.6239095 68.6090697,12.5189035 C68.8791712,12.4141976 69.1776259,12.3616946 69.5050308,12.3616946 C69.921972,12.3616946 70.2866837,12.4565 70.6000611,12.6458107 C70.913737,12.8351215 71.157873,13.1207378 71.3333644,13.5026595 L70.3326457,13.9226834 C70.2956373,13.8257779 70.2490784,13.7378729 70.1932673,13.6586684 C70.1371579,13.5791639 70.0726916,13.51076 69.9986749,13.4537567 C69.925255,13.3964535 69.84318,13.352651 69.7518528,13.3217492 C69.6605257,13.2911475 69.5620356,13.2758466 69.4548904,13.2758466 C69.2814882,13.2758466 69.1295747,13.3133487 68.9976577,13.389253 C68.8666361,13.4648573 68.7568048,13.563863 68.6684622,13.6859699 C68.5798211,13.8086769 68.5132657,13.9463848 68.468796,14.0993935 C68.4240278,14.2527022 68.4016436,14.4066109 68.4016436,14.5617198 C68.4016436,14.7201288 68.4246247,14.8752376 68.4708851,15.0279463 C68.5177425,15.1797549 68.5857902,15.3162627 68.676222,15.4368696 C68.7663553,15.5574764 68.8785743,15.654382 69.012282,15.7275861 C69.1462882,15.8007903 69.2999924,15.8370924 69.4733946,15.8370924 C69.5871058,15.8370924 69.6933557,15.8223915 69.7924426,15.7920898 C69.8912312,15.7620881 69.9780815,15.7173855 70.0526952,15.6588822 C70.1270104,15.5997788 70.1878952,15.5262747 70.235051,15.4380696 C70.2825053,15.3501646 70.3114554,15.2472588 70.3219013,15.1293521 L69.460561,15.1293521 L69.460561,14.2974047 L71.5539224,14.2974047" id="Fill-23" fill="#FFFFFE"></path>
            <path d="M73.715033,14.3241063 L73.8171046,14.3241063 C73.9030595,14.3241063 73.9899098,14.3181059 74.0773571,14.3067053 C74.1651028,14.2953046 74.2435964,14.2716033 74.3140317,14.2356012 C74.3838701,14.1989991 74.4405765,14.1482962 74.4844493,14.0822925 C74.5280237,14.0165887 74.5501094,13.9280837 74.5501094,13.8167774 C74.5501094,13.7060711 74.5280237,13.616966 74.4844493,13.5500622 C74.4405765,13.4831584 74.3838701,13.4315555 74.3140317,13.3955534 C74.2435964,13.3595514 74.1651028,13.33585 74.0773571,13.3241493 C73.9899098,13.3127487 73.9030595,13.3073484 73.8171046,13.3073484 L73.715033,13.3073484 L73.715033,14.3241063 Z M76.0343247,16.5739343 L74.7208255,16.5739343 L73.7281651,15.005445 L73.715033,15.005445 L73.715033,16.5739343 L72.6614879,16.5739343 L72.6614879,12.4964022 L74.2376273,12.4964022 C74.4372935,12.4964022 74.6232308,12.5210036 74.7957376,12.5705065 C74.9682444,12.6200093 75.1177702,12.6953136 75.2437181,12.7979194 C75.3699645,12.8996252 75.468753,13.0295326 75.5403821,13.1867415 C75.6123097,13.3445505 75.6481243,13.5323612 75.6481243,13.7504736 C75.6481243,13.8917816 75.6290232,14.0255893 75.5905225,14.1536966 C75.5517234,14.2815038 75.4947185,14.3961103 75.419508,14.4981162 C75.3442974,14.600422 75.2514779,14.6865269 75.1410497,14.7570309 C75.0309199,14.8275349 74.9037782,14.8758376 74.7605199,14.9022392 L76.0343247,16.5739343 L76.0343247,16.5739343 Z" id="Fill-24" fill="#FFFFFE"></path>
            <polygon id="Fill-25" fill="#FFFFFE" points="76.9499838 16.5733343 78.0035289 16.5733343 78.0035289 12.4964022 76.9499838 12.4964022"></polygon>
            <path d="M82.1165334,13.8644801 C82.0622147,13.7903759 82.0004346,13.7255722 81.9311931,13.670369 C81.86225,13.6145659 81.7876363,13.5683632 81.7076505,13.5302611 C81.6282615,13.4924589 81.5446942,13.4639573 81.4569485,13.4444562 C81.3695013,13.4252551 81.2811587,13.4153545 81.1919207,13.4153545 C81.0307552,13.4153545 80.8833185,13.4444562 80.7502077,13.5026595 C80.6170969,13.5605628 80.5030872,13.6409674 80.409074,13.7429732 C80.3141654,13.844979 80.2407455,13.9646858 80.1882175,14.1020936 C80.1356895,14.2392014 80.1097239,14.3874099 80.1097239,14.5458189 C80.1097239,14.7078281 80.1356895,14.8563365 80.1882175,14.9919443 C80.2407455,15.127552 80.3150607,15.2442586 80.4111632,15.3420642 C80.5078625,15.4395697 80.6233645,15.5163741 80.7579675,15.5715772 C80.893466,15.6267804 81.0426934,15.654382 81.2074404,15.654382 C81.2930969,15.654382 81.3787534,15.6447814 81.4635145,15.6243802 C81.5485741,15.6042791 81.6297538,15.5751774 81.7076505,15.5373753 C81.7858456,15.4992731 81.8595639,15.4539706 81.928507,15.4011675 C81.99745,15.3483645 82.0604239,15.2886611 82.1165334,15.2217573 L82.1165334,16.4920296 C82.0287877,16.5181311 81.9467127,16.5433325 81.8694129,16.5673339 C81.7924116,16.5907352 81.7169026,16.6111364 81.6434827,16.6279374 C81.5697644,16.6447383 81.4960461,16.6579391 81.4214324,16.6675396 C81.3471172,16.6774402 81.2686236,16.6822405 81.1865485,16.6822405 C80.9030165,16.6822405 80.6308258,16.6300375 80.3708718,16.5262316 C80.1106193,16.4224257 79.8745416,16.2745172 79.6629372,16.0825063 C79.4387977,15.8784947 79.2740507,15.6462815 79.1689946,15.3867667 C79.0639386,15.127252 79.0114105,14.8449359 79.0114105,14.5407186 C79.0114105,14.2605026 79.0621478,13.9919873 79.1639209,13.7351727 C79.265097,13.4780581 79.4143244,13.2491451 79.6104091,13.0484337 C79.710093,12.9464278 79.8196259,12.8543226 79.9384109,12.7724179 C80.0577928,12.6908133 80.1834422,12.6209093 80.3156577,12.5636061 C80.4481715,12.5066028 80.5845654,12.4628003 80.7266298,12.4330986 C80.8686942,12.4030969 81.0101618,12.3880961 81.1525247,12.3880961 C81.3223454,12.3880961 81.4858986,12.4063971 81.6434827,12.4423992 C81.8010668,12.4787012 81.9589493,12.5291041 82.1165334,12.5945078 L82.1165334,13.8644801" id="Fill-26" fill="#FFFFFE"></path>
            <path d="M86.8933012,12.4964022 L86.8933012,14.7885327 C86.8933012,14.9205402 86.8903167,15.0510476 86.8840491,15.1794549 C86.8780801,15.3081623 86.8610681,15.4332694 86.8330134,15.5559764 C86.8049586,15.6780833 86.7625781,15.79629 86.7052748,15.9099965 C86.6485684,16.023403 86.5703732,16.129309 86.4703909,16.2277146 C86.3862267,16.3123194 86.2910196,16.3831234 86.1841728,16.4404267 C86.077326,16.49773 85.9651071,16.5442326 85.8478144,16.5802346 C85.7302232,16.6165367 85.6099459,16.6423382 85.4860872,16.6585391 C85.3631239,16.67384 85.2425482,16.6819404 85.1252555,16.6819404 C85.006172,16.6819404 84.8849994,16.67384 84.7614392,16.6585391 C84.6378789,16.6423382 84.5181986,16.6165367 84.4012043,16.5802346 C84.2851054,16.5442326 84.1734834,16.49773 84.0666366,16.4404267 C83.9600882,16.3831234 83.8642843,16.3123194 83.7801201,16.2277146 C83.6789439,16.129309 83.5995549,16.023403 83.5428485,15.9099965 C83.4855452,15.79629 83.4434631,15.6780833 83.4154084,15.5559764 C83.3873536,15.4332694 83.3697448,15.3081623 83.3643726,15.1794549 C83.3578066,15.0510476 83.3548221,14.9205402 83.3548221,14.7885327 L83.3548221,12.4964022 L84.4083672,12.4964022 L84.4083672,14.6433244 C84.4083672,14.7312294 84.4104564,14.8206345 84.4149332,14.9100396 C84.4188132,15.0000447 84.4286622,15.0855496 84.4435849,15.1677543 C84.4585076,15.2490589 84.4811902,15.3261633 84.511931,15.3972673 C84.5426719,15.4686714 84.5844555,15.5304749 84.6378789,15.5832779 C84.6916008,15.6360809 84.7575593,15.6777833 84.8360529,15.707785 C84.9151434,15.7374867 85.0112458,15.7524875 85.1252555,15.7524875 C85.2374745,15.7524875 85.3332784,15.7374867 85.4129658,15.707785 C85.4926532,15.6777833 85.5589102,15.6360809 85.6114382,15.5832779 C85.6639662,15.5304749 85.7054515,15.4686714 85.7358938,15.3972673 C85.7669331,15.3261633 85.7902126,15.2490589 85.8057322,15.1677543 C85.8212519,15.0855496 85.8311009,15.0000447 85.8343839,14.9100396 C85.8379654,14.8206345 85.8400545,14.7312294 85.8400545,14.6433244 L85.8400545,12.4964022 L86.8933012,12.4964022" id="Fill-27" fill="#FFFFFE"></path>
            <polyline id="Fill-28" fill="#FFFFFE" points="89.2490044 15.6759832 90.5150493 15.6759832 90.5150493 16.5739343 88.1951607 16.5739343 88.1951607 12.4964022 89.2490044 12.4964022 89.2490044 15.6759832"></polyline>
            <polyline id="Fill-29" fill="#FFFFFE" points="92.7892743 16.5739343 91.7360275 16.5739343 91.7360275 13.3946534 90.8639428 13.3946534 90.8639428 12.4964022 93.6619559 12.4964022 93.6619559 13.3946534 92.7892743 13.3946534 92.7892743 16.5739343"></polyline>
            <path d="M98.1489241,12.4964022 L98.1489241,14.7885327 C98.1489241,14.9205402 98.1459396,15.0510476 98.139672,15.1794549 C98.1337029,15.3081623 98.116691,15.4332694 98.0889347,15.5559764 C98.0605815,15.6780833 98.018201,15.79629 97.9611961,15.9099965 C97.9041913,16.023403 97.8262946,16.129309 97.7266107,16.2277146 C97.642148,16.3123194 97.546344,16.3831234 97.4400942,16.4404267 C97.3329489,16.49773 97.2207299,16.5442326 97.1034372,16.5802346 C96.9858461,16.6165367 96.8658673,16.6423382 96.7420086,16.6585391 C96.6190452,16.67384 96.4981711,16.6819404 96.3811768,16.6819404 C96.2623918,16.6819404 96.1406223,16.67384 96.0170621,16.6585391 C95.8935018,16.6423382 95.7738215,16.6165367 95.6574241,16.5802346 C95.5410268,16.5442326 95.4294047,16.49773 95.3225579,16.4404267 C95.2157111,16.3831234 95.1205041,16.3123194 95.0363398,16.2277146 C94.9345668,16.129309 94.8551778,16.023403 94.7984714,15.9099965 C94.7414666,15.79629 94.6987876,15.6780833 94.6710313,15.5559764 C94.6429765,15.4332694 94.6256662,15.3081623 94.6199955,15.1794549 C94.6134295,15.0510476 94.610445,14.9205402 94.610445,14.7885327 L94.610445,12.4964022 L95.6639901,12.4964022 L95.6639901,14.6433244 C95.6639901,14.7312294 95.6660793,14.8206345 95.6705561,14.9100396 C95.6747345,15.0000447 95.6845835,15.0855496 95.6995062,15.1677543 C95.714429,15.2490589 95.7368131,15.3261633 95.7678524,15.3972673 C95.7985932,15.4686714 95.8403769,15.5304749 95.8935018,15.5832779 C95.9472237,15.6360809 96.0134806,15.6777833 96.0919742,15.707785 C96.1707662,15.7374867 96.2671671,15.7524875 96.3811768,15.7524875 C96.4930973,15.7524875 96.5891998,15.7374867 96.6688872,15.707785 C96.7485746,15.6777833 96.8145331,15.6360809 96.8673596,15.5832779 C96.9198876,15.5304749 96.9607759,15.4686714 96.9921136,15.3972673 C97.0228545,15.3261633 97.0458355,15.2490589 97.0610567,15.1677543 C97.0771732,15.0855496 97.0867238,15.0000447 97.0903052,14.9100396 C97.0938867,14.8206345 97.0956774,14.7312294 97.0956774,14.6433244 L97.0956774,12.4964022 L98.1489241,12.4964022" id="Fill-30" fill="#FFFFFE"></path>
            <path d="M100.504627,14.3241063 L100.606699,14.3241063 C100.692654,14.3241063 100.779504,14.3181059 100.866653,14.3067053 C100.954399,14.2953046 101.033489,14.2716033 101.103626,14.2356012 C101.173763,14.1989991 101.230469,14.1482962 101.27464,14.0822925 C101.318215,14.0165887 101.339704,13.9280837 101.339704,13.8167774 C101.339704,13.7060711 101.318215,13.616966 101.27464,13.5500622 C101.230469,13.4831584 101.173763,13.4315555 101.103626,13.3955534 C101.033489,13.3595514 100.954399,13.33585 100.866653,13.3241493 C100.779504,13.3127487 100.692654,13.3073484 100.606699,13.3073484 L100.504627,13.3073484 L100.504627,14.3241063 Z M102.824217,16.5739343 L101.51042,16.5739343 L100.517759,15.005445 L100.504627,15.005445 L100.504627,16.5739343 L99.4510821,16.5739343 L99.4510821,12.4964022 L101.027221,12.4964022 C101.226589,12.4964022 101.412825,12.5210036 101.58563,12.5705065 C101.758137,12.6200093 101.907663,12.6953136 102.033611,12.7979194 C102.15926,12.8996252 102.258347,13.0295326 102.330275,13.1867415 C102.401904,13.3445505 102.437718,13.5323612 102.437718,13.7504736 C102.437718,13.8917816 102.418617,14.0255893 102.380117,14.1536966 C102.341616,14.2815038 102.284611,14.3961103 102.209401,14.4981162 C102.13419,14.600422 102.041371,14.6865269 101.930942,14.7570309 C101.820813,14.8275349 101.693671,14.8758376 101.550114,14.9022392 L102.824217,16.5739343 L102.824217,16.5739343 Z" id="Fill-31" fill="#FFFFFE"></path>
            <path d="M105.692964,13.7561739 L105.683115,13.7561739 L105.246476,15.0552479 L106.123933,15.0552479 L105.692964,13.7561739 Z M104.955184,15.865894 L104.677024,16.5733343 L103.557521,16.5733343 L105.118439,12.4964022 L106.268683,12.4964022 L107.797368,16.5733343 L106.673089,16.5733343 L106.408062,15.865894 L104.955184,15.865894 L104.955184,15.865894 Z" id="Fill-32" fill="#FFFFFE"></path>
            <polyline id="Fill-33" fill="#FFFFFE" points="109.784778 15.6759832 111.050823 15.6759832 111.050823 16.5739343 108.731233 16.5739343 108.731233 12.4964022 109.784778 12.4964022 109.784778 15.6759832"></polyline>
            <path d="M26.8280949,20.8716789 L26.820335,20.8716789 L26.5090468,21.7990317 L27.1358017,21.7990317 L26.8280949,20.8716789 Z M26.3010238,22.3780646 L26.102253,22.8832934 L25.3029912,22.8832934 L26.4174212,19.9722277 L27.2387686,19.9722277 L28.3302175,22.8832934 L27.5273743,22.8832934 L27.338154,22.3780646 L26.3010238,22.3780646 L26.3010238,22.3780646 Z" id="Fill-34" fill="#FFFFFE"></path>
            <polyline id="Fill-35" fill="#FFFFFE" points="28.6985106 19.9722277 29.4506165 19.9722277 30.8309696 21.751929 30.8390278 21.751929 30.8390278 19.9722277 31.5905368 19.9722277 31.5905368 22.8832934 30.8390278 22.8832934 29.460167 21.0993918 29.4506165 21.0993918 29.4506165 22.8832934 28.6985106 22.8832934 28.6985106 19.9722277"></polyline>
            <path d="M32.9896926,22.2424569 L33.1607071,22.2424569 C33.2729261,22.2424569 33.3797729,22.226556 33.4803521,22.1953542 C33.5809314,22.1638524 33.669274,22.1143496 33.744783,22.0480458 C33.8205905,21.9817421 33.8808784,21.8968372 33.9256466,21.7945314 C33.9707132,21.6919256 33.9930973,21.5698186 33.9930973,21.4276105 C33.9930973,21.2971031 33.9728024,21.1806965 33.9322126,21.0795907 C33.8916227,20.978785 33.8349163,20.8935801 33.7617949,20.8245762 C33.6883751,20.7552723 33.6015247,20.7027693 33.5009455,20.6670672 C33.4003663,20.6310652 33.2893411,20.6127641 33.16787,20.6127641 L32.9896926,20.6127641 L32.9896926,22.2424569 Z M32.2378851,19.9722277 L33.3051592,19.9722277 C33.4388669,19.9722277 33.5683963,19.9890286 33.6934488,20.0229306 C33.8185013,20.0568325 33.9354956,20.1051353 34.0450285,20.1672388 C34.1545613,20.2293423 34.2539468,20.3046466 34.3440801,20.3925516 C34.4342134,20.4807566 34.5109163,20.5788622 34.575084,20.6868684 C34.6383564,20.7951745 34.6881984,20.9112811 34.724013,21.0366883 C34.7598275,21.1611954 34.7771379,21.2917028 34.7771379,21.4276105 C34.7771379,21.5635182 34.7598275,21.6940257 34.724013,21.8191328 C34.6881984,21.9439399 34.638058,22.0609466 34.5738902,22.1686527 C34.509424,22.2766588 34.4321242,22.3747644 34.3419909,22.4626694 C34.252156,22.5505744 34.1527706,22.6255787 34.0441331,22.6879822 C33.9351971,22.7500858 33.8185013,22.7983885 33.6934488,22.8322905 C33.5683963,22.8661924 33.4388669,22.8832934 33.3051592,22.8832934 L32.2378851,22.8832934 L32.2378851,19.9722277 L32.2378851,19.9722277 Z" id="Fill-36" fill="#FFFFFE"></path>
            <polyline id="Fill-37" fill="#FFFFFE" points="38.4224639 19.7040124 38.4224639 20.3853512 39.6124028 20.3853512 39.6124028 21.2833023 38.4224639 21.2833023 38.4224639 21.9856423 39.6780629 21.9856423 39.6780629 22.8829933 37.3692171 22.8829933 37.3692171 18.8057613 39.6780629 18.8057613 39.6780629 19.7040124 38.4224639 19.7040124"></polyline>
            <polyline id="Fill-38" fill="#FFFFFE" points="40.8620327 18.8060613 41.9152794 18.8060613 43.8483707 21.2989032 43.859115 21.2989032 43.859115 18.8060613 44.9126602 18.8060613 44.9126602 22.8832934 43.859115 22.8832934 41.9284115 20.3853512 41.9152794 20.3853512 41.9152794 22.8832934 40.8620327 22.8832934 40.8620327 18.8060613"></polyline>
            <polyline id="Fill-39" fill="#FFFFFE" points="47.8157293 21.2833023 48.8006299 18.8057613 49.9460991 18.8057613 48.2150617 22.8835934 47.3952066 22.8835934 45.6901348 18.8057613 46.8385885 18.8057613 47.8157293 21.2833023"></polyline>
            <polygon id="Fill-40" fill="#FFFFFE" points="50.7268566 22.8826933 51.7804018 22.8826933 51.7804018 18.8057613 50.7268566 18.8057613"></polygon>
            <g id="Group-44" transform="translate(52.999, 18.6711)">
                <mask id="mask-2" fill="white">
                    <use xlink:href="#path-1"></use>
                </mask>
                <g id="Clip-42"></g>
                <path d="M1.05354516,1.9627117 L1.15591513,1.9627117 C1.24187009,1.9627117 1.32842196,1.95671136 1.4158692,1.94531071 C1.50361488,1.93361004 1.58210848,1.90990869 1.65254379,1.87390665 C1.72208374,1.8379046 1.77938705,1.78690169 1.82296143,1.72089794 C1.86713273,1.65429415 1.88891993,1.56638914 1.88891993,1.45508281 C1.88891993,1.34437651 1.86713273,1.25557146 1.82296143,1.18866765 C1.77938705,1.12176384 1.72208374,1.0701609 1.65254379,1.03385884 C1.58210848,0.997856789 1.50361488,0.97415544 1.4158692,0.963054808 C1.32842196,0.951354142 1.24187009,0.945353801 1.15591513,0.945353801 L1.05354516,0.945353801 L1.05354516,1.9627117 Z M3.3728368,4.21223972 L2.05933757,4.21223972 L1.06637872,2.64375046 L1.05354516,2.64375046 L1.05354516,4.21223972 L0,4.21223972 L0,0.135007683 L1.57613938,0.135007683 C1.77580559,0.135007683 1.96204133,0.159609083 2.13424971,0.208811884 C2.30705499,0.258314701 2.45628235,0.333919004 2.58223024,0.435924809 C2.70847659,0.538230631 2.80696665,0.667838007 2.87889424,0.825346971 C2.95052337,0.983155952 2.98663639,1.17096664 2.98663639,1.38937907 C2.98663639,1.53008708 2.96753529,1.66449473 2.92903463,1.79200198 C2.89053397,1.91980926 2.83352912,2.03441578 2.75802008,2.13642158 C2.68280949,2.23872741 2.58999007,2.32513232 2.47956182,2.39563634 C2.36943203,2.46554032 2.24229032,2.5144431 2.09903205,2.54054458 L3.3728368,4.21223972 L3.3728368,4.21223972 Z" id="Fill-41" fill="#FFFFFE" mask="url(#mask-2)"></path>
                <path d="M6.12041096,1.02725846 C5.96252841,1.02725846 5.81479333,1.05696015 5.67631034,1.1157635 C5.53782735,1.17516688 5.41665473,1.25407137 5.31219558,1.35367704 C5.20833333,1.45328271 5.12566138,1.56758921 5.06567198,1.69689657 C5.00508567,1.82650395 4.97494174,1.96151163 4.97494174,2.10251966 C4.97494174,2.27802964 5.00508567,2.4406389 5.06567198,2.58974738 C5.12566138,2.73825584 5.20833333,2.86636313 5.31219558,2.97526932 C5.41665473,3.08357549 5.53782735,3.16728025 5.67631034,3.22818372 C5.81479333,3.2893872 5.96252841,3.31968893 6.12041096,3.31968893 C6.2776966,3.31968893 6.42632705,3.2893872 6.5657054,3.22818372 C6.7047853,3.16728025 6.82595792,3.08357549 6.92922325,2.97526932 C7.0330855,2.86636313 7.11456364,2.73825584 7.17514994,2.58974738 C7.2354378,2.4406389 7.26558172,2.27802964 7.26558172,2.10251966 C7.26558172,1.96151163 7.2354378,1.82650395 7.17514994,1.69689657 C7.11456364,1.56758921 7.0330855,1.45328271 6.92922325,1.35367704 C6.82595792,1.25407137 6.7047853,1.17516688 6.5657054,1.1157635 C6.42632705,1.05696015 6.2776966,1.02725846 6.12041096,1.02725846 M6.12041096,0 C6.31470498,0 6.50541755,0.0237013489 6.6916533,0.0705040124 C6.8781875,0.117006659 7.05457424,0.183610449 7.22081352,0.270015367 C7.38735125,0.356120267 7.54045852,0.461126243 7.68043379,0.585333312 C7.8207075,0.70954038 7.94128321,0.84904832 8.04186245,1.0050572 C8.14274015,1.16076606 8.22153219,1.32997569 8.27853705,1.51358614 C8.33524344,1.69659655 8.3638951,1.8907076 8.3638951,2.09681933 C8.3638951,2.42803818 8.30808406,2.73105543 8.19705891,3.0064711 C8.08543684,3.28218679 7.93024039,3.51890026 7.73087263,3.71691153 C7.53090797,3.91552283 7.29393492,4.06943159 7.01995349,4.18043791 C6.7456736,4.29114421 6.44602506,4.34694739 6.12041096,4.34694739 C5.90313592,4.34694739 5.69690371,4.32204597 5.50141587,4.27134308 C5.30652494,4.22154025 5.12566138,4.14983617 4.96031746,4.05623084 C4.79497354,3.96322555 4.64514928,3.85011911 4.51144156,3.71691153 C4.37743539,3.58400397 4.26342569,3.43399543 4.1697109,3.26688592 C4.07629458,3.09977641 4.00406853,2.91766605 3.95333123,2.72145488 C3.90229547,2.52554373 3.87692682,2.31703186 3.87692682,2.09681933 C3.87692682,1.8907076 3.90557848,1.69659655 3.96198642,1.51358614 C4.01899127,1.32997569 4.09838023,1.16076606 4.20015329,1.0050572 C4.30162789,0.84904832 4.42190514,0.70954038 4.56098504,0.585333312 C4.7003634,0.461126243 4.85317222,0.356120267 5.0194115,0.270015367 C5.18594923,0.183610449 5.36233597,0.117006659 5.54887017,0.0705040124 C5.73540437,0.0237013489 5.92581848,0 6.12041096,0" id="Fill-43" fill="#FFFFFE" mask="url(#mask-2)"></path>
            </g>
            <polyline id="Fill-45" fill="#FFFFFE" points="62.4832865 18.8060613 63.5368317 18.8060613 65.4702214 21.2989032 65.4806673 21.2989032 65.4806673 18.8060613 66.533914 18.8060613 66.533914 22.8832934 65.4806673 22.8832934 63.5499637 20.3853512 63.5368317 20.3853512 63.5368317 22.8832934 62.4832865 22.8832934 62.4832865 18.8060613"></polyline>
            <polyline id="Fill-46" fill="#FFFFFE" points="68.1873532 18.8060613 69.2250802 18.8060613 70.0500091 20.9847853 70.9194077 18.8060613 71.9702667 18.8060613 72.5823974 22.8832934 71.5291507 22.8832934 71.2318898 20.5356598 71.2214439 20.5356598 70.2469892 22.8832934 69.8291526 22.8832934 68.8964816 20.5356598 68.8863341 20.5356598 68.5472896 22.8832934 67.4997135 22.8832934 68.1873532 18.8060613"></polyline>
            <polyline id="Fill-47" fill="#FFFFFE" points="74.614874 19.7040124 74.614874 20.3853512 75.8051115 20.3853512 75.8051115 21.2833023 74.614874 21.2833023 74.614874 21.9856423 75.8701746 21.9856423 75.8701746 22.8829933 73.5613289 22.8829933 73.5613289 18.8057613 75.8701746 18.8057613 75.8701746 19.7040124 74.614874 19.7040124"></polyline>
            <polyline id="Fill-48" fill="#FFFFFE" points="77.0541445 18.8060613 78.1079881 18.8060613 80.0410793 21.2989032 80.0512268 21.2989032 80.0512268 18.8060613 81.1050704 18.8060613 81.1050704 22.8832934 80.0512268 22.8832934 78.1208216 20.3853512 78.1079881 20.3853512 78.1079881 22.8832934 77.0541445 22.8832934 77.0541445 18.8060613"></polyline>
            <polyline id="Fill-49" fill="#FFFFFE" points="83.8806993 22.8832934 82.8274526 22.8832934 82.8274526 19.7040124 81.9550694 19.7040124 81.9550694 18.8060613 84.7530824 18.8060613 84.7530824 19.7040124 83.8806993 19.7040124 83.8806993 22.8832934"></polyline>
            <path d="M87.1174407,20.065533 L87.1069948,20.065533 L86.6709525,21.3646069 L87.5481109,21.3646069 L87.1174407,20.065533 Z M86.3790638,22.1752531 L86.100904,22.8832934 L84.9816988,22.8832934 L86.5423185,18.8060613 L87.6928614,18.8060613 L89.221845,22.8832934 L88.0972676,22.8832934 L87.8322398,22.1752531 L86.3790638,22.1752531 L86.3790638,22.1752531 Z" id="Fill-50" fill="#FFFFFE"></path>
            <polyline id="Fill-51" fill="#FFFFFE" points="91.2086581 21.9856423 92.4750014 21.9856423 92.4750014 22.8835934 90.1551129 22.8835934 90.1551129 18.8057613 91.2086581 18.8057613 91.2086581 21.9856423"></polyline>
            <path d="M97.9668668,19.854321 C97.8686751,19.7736164 97.7600376,19.7082127 97.6412527,19.6590099 C97.5215723,19.609507 97.3974151,19.5849056 97.2678858,19.5849056 C97.2186408,19.5849056 97.1682019,19.5924061 97.1153754,19.6059068 C97.0631459,19.6203077 97.0141993,19.6416089 96.970028,19.6695105 C96.9249613,19.6980121 96.8879529,19.7334141 96.8593013,19.7766166 C96.8306496,19.819819 96.8160253,19.8693218 96.8160253,19.925425 C96.8160253,19.9854284 96.8318434,20.0367314 96.8634796,20.0787337 C96.8948174,20.1210362 96.9345119,20.1570382 96.9816677,20.1870399 C97.0288236,20.2167416 97.0795609,20.2422431 97.1338796,20.2623442 C97.1878999,20.2827454 97.2383388,20.2998463 97.2840023,20.3136471 L97.5514178,20.3958518 C97.6934822,20.4381542 97.8251008,20.4882571 97.9468703,20.5476604 C98.0683414,20.6064638 98.1745912,20.679968 98.2635307,20.768173 C98.3530672,20.856078 98.423204,20.9604839 98.4754336,21.0810908 C98.5264694,21.2013976 98.5527334,21.3448058 98.5527334,21.5101152 C98.5527334,21.6103209 98.5461674,21.7114267 98.5330354,21.8122324 C98.5199033,21.9136382 98.4969223,22.0117438 98.4646892,22.1068492 C98.4321577,22.2019546 98.3888817,22.2922597 98.334563,22.3777646 C98.2802442,22.4629694 98.212495,22.5397738 98.1319122,22.6084777 C97.9728358,22.7443855 97.7931661,22.841891 97.5923061,22.9015944 C97.3917445,22.9618978 97.1878999,22.9915995 96.9816677,22.9915995 C96.725892,22.9915995 96.4760854,22.9504972 96.2331433,22.8685925 C95.9896042,22.7866879 95.763674,22.6729814 95.5556511,22.5268731 L96.0069146,21.6709244 C96.0737685,21.7297277 96.14301,21.7840308 96.2146391,21.8350337 C96.2862682,21.8860366 96.3617773,21.9307391 96.4399724,21.9697414 C96.5196598,22.0081436 96.6002426,22.0387453 96.6847053,22.0606465 C96.768571,22.0825478 96.8554214,22.0939484 96.9449578,22.0939484 C97.006141,22.0939484 97.0676227,22.085848 97.1288059,22.0702471 C97.1896907,22.0540462 97.2449048,22.0294448 97.2926575,21.9961429 C97.3413057,21.9622409 97.3804032,21.9199385 97.4099502,21.8680356 C97.4397957,21.8158326 97.45442,21.7540291 97.45442,21.682025 C97.45442,21.6079208 97.4317374,21.5452172 97.3860739,21.4945143 C97.3407087,21.4432114 97.2848977,21.3994089 97.2189392,21.3631068 C97.1535776,21.3274048 97.0843361,21.2980031 97.0106178,21.2749018 C96.9368995,21.2524005 96.8721348,21.2328994 96.8160253,21.2169985 C96.6497861,21.1692958 96.4990664,21.119793 96.3641649,21.0690901 C96.2295618,21.0177872 96.1146568,20.9505834 96.0188528,20.8671786 C95.9233473,20.7837739 95.8493305,20.6781679 95.7971009,20.5515607 C95.7442744,20.4246534 95.717712,20.2626442 95.717712,20.065233 C95.717712,19.8597213 95.7523327,19.6722106 95.8212758,19.503001 C95.8911142,19.3340914 95.988112,19.1900832 96.1119707,19.0712764 C96.2364263,18.9527697 96.3838629,18.8606644 96.554579,18.7952607 C96.7255936,18.730157 96.9124262,18.6977552 97.1153754,18.6977552 C97.2171485,18.6977552 97.3236968,18.7055556 97.4359158,18.7214565 C97.5478363,18.7373574 97.6591599,18.7598587 97.7695882,18.7886603 C97.8800164,18.817762 97.9877586,18.853164 98.0925162,18.8945664 C98.1975722,18.9359687 98.2957639,18.9821713 98.387091,19.0331742 L97.9668668,19.854321" id="Fill-52" fill="#FFFFFE"></path>
            <path d="M102.449657,20.1738392 C102.395636,20.0997349 102.333259,20.0355313 102.264615,19.9800281 C102.195672,19.924225 102.121058,19.8777223 102.041072,19.8396201 C101.961683,19.801818 101.878116,19.7739164 101.79037,19.7541153 C101.703221,19.7346142 101.614282,19.7250136 101.524745,19.7250136 C101.363878,19.7250136 101.217039,19.7541153 101.083928,19.8120186 C100.950519,19.8702219 100.836509,19.9503264 100.742496,20.0523322 C100.647587,20.1543381 100.574167,20.2740449 100.521639,20.4117527 C100.469111,20.5491605 100.442847,20.6970689 100.442847,20.8551779 C100.442847,21.0171872 100.469111,21.1656956 100.521639,21.3013033 C100.574167,21.436911 100.648184,21.5539177 100.744585,21.6514233 C100.840986,21.7489288 100.956786,21.8254332 101.091389,21.8812363 C101.226291,21.9364395 101.376115,21.964041 101.540862,21.964041 C101.626519,21.964041 101.711877,21.9541405 101.796936,21.9340393 C101.881996,21.9133382 101.963474,21.8845365 102.041072,21.8470344 C102.119566,21.8092322 102.192986,21.7633296 102.26163,21.7108266 C102.330872,21.6580236 102.394144,21.5983202 102.449657,21.5311164 L102.449657,22.8013887 C102.361911,22.8277902 102.280134,22.8526916 102.202835,22.876693 C102.125833,22.9000943 102.050623,22.9207955 101.976904,22.9372964 C101.903485,22.9540974 101.829169,22.9675982 101.754854,22.9771987 C101.680539,22.9867992 101.602344,22.9915995 101.51997,22.9915995 C101.235841,22.9915995 100.964248,22.9393966 100.703995,22.8358907 C100.444041,22.7320848 100.207963,22.5838763 99.9960604,22.3918654 C99.7719209,22.1878538 99.6074724,21.9559406 99.5024163,21.6961258 C99.3973602,21.436611 99.3451307,21.154295 99.3451307,20.8497776 C99.3451307,20.5701617 99.3955695,20.3013464 99.4970441,20.0445318 C99.5985187,19.7874172 99.7474476,19.5588042 99.9438308,19.3577927 C100.043515,19.2557869 100.153346,19.1636817 100.271833,19.081777 C100.390916,19.0004724 100.516864,18.9305684 100.649079,18.8732651 C100.781593,18.8162619 100.917987,18.7724594 101.060051,18.7424577 C101.202116,18.712756 101.343882,18.6977552 101.485648,18.6977552 C101.655767,18.6977552 101.819619,18.7157562 101.976904,18.7520582 C102.134488,18.7880603 102.292669,18.8384632 102.449657,18.9035669 L102.449657,20.1738392" id="Fill-53" fill="#FFFFFE"></path>
            <polygon id="Fill-54" fill="#FFFFFE" points="103.638999 22.8826933 104.692842 22.8826933 104.692842 18.8057613 103.638999 18.8057613"></polygon>
            <polyline id="Fill-55" fill="#FFFFFE" points="106.964978 19.7040124 106.964978 20.3853512 108.154619 20.3853512 108.154619 21.2833023 106.964978 21.2833023 106.964978 21.9856423 108.220577 21.9856423 108.220577 22.8829933 105.911433 22.8829933 105.911433 18.8057613 108.220577 18.8057613 108.220577 19.7040124 106.964978 19.7040124"></polyline>
            <polyline id="Fill-56" fill="#FFFFFE" points="109.509305 18.8060613 110.56285 18.8060613 112.496538 21.2989032 112.506387 21.2989032 112.506387 18.8060613 113.560529 18.8060613 113.560529 22.8832934 112.506387 22.8832934 110.57628 20.3853512 110.56285 20.3853512 110.56285 22.8832934 109.509305 22.8832934 109.509305 18.8060613"></polyline>
            <path d="M117.568179,20.1738392 C117.514159,20.0997349 117.45208,20.0355313 117.383137,19.9800281 C117.314194,19.924225 117.23958,19.8777223 117.159594,19.8396201 C117.080504,19.801818 116.99634,19.7739164 116.908594,19.7541153 C116.821445,19.7346142 116.733103,19.7250136 116.643566,19.7250136 C116.482699,19.7250136 116.335561,19.7541153 116.202152,19.8120186 C116.069041,19.8702219 115.955031,19.9503264 115.861018,20.0523322 C115.766109,20.1543381 115.69269,20.2740449 115.640161,20.4117527 C115.587633,20.5491605 115.561369,20.6970689 115.561369,20.8551779 C115.561369,21.0171872 115.587633,21.1656956 115.640161,21.3013033 C115.69269,21.436911 115.766706,21.5539177 115.863107,21.6514233 C115.959807,21.7489288 116.075308,21.8254332 116.21021,21.8812363 C116.34541,21.9364395 116.494637,21.964041 116.659384,21.964041 C116.745339,21.964041 116.830399,21.9541405 116.915459,21.9340393 C117.00022,21.9133382 117.081698,21.8845365 117.159594,21.8470344 C117.23779,21.8092322 117.311508,21.7633296 117.380153,21.7108266 C117.449394,21.6580236 117.512368,21.5983202 117.568179,21.5311164 L117.568179,22.8013887 C117.480135,22.8277902 117.398358,22.8526916 117.321058,22.876693 C117.244057,22.9000943 117.168847,22.9207955 117.095427,22.9372964 C117.022007,22.9540974 116.947692,22.9675982 116.873078,22.9771987 C116.798763,22.9867992 116.720866,22.9915995 116.638493,22.9915995 C116.354364,22.9915995 116.082471,22.9393966 115.822517,22.8358907 C115.562563,22.7320848 115.326486,22.5838763 115.114881,22.3918654 C114.890443,22.1878538 114.725696,21.9559406 114.62064,21.6961258 C114.515584,21.436611 114.463355,21.154295 114.463355,20.8497776 C114.463355,20.5701617 114.513793,20.3013464 114.615268,20.0445318 C114.717041,19.7874172 114.866268,19.5588042 115.062055,19.3577927 C115.162037,19.2557869 115.27157,19.1636817 115.390355,19.081777 C115.509438,19.0004724 115.635088,18.9305684 115.767303,18.8732651 C115.899817,18.8162619 116.036808,18.7724594 116.178872,18.7424577 C116.320638,18.712756 116.462106,18.6977552 116.604469,18.6977552 C116.773991,18.6977552 116.937843,18.7157562 117.095427,18.7520582 C117.253309,18.7880603 117.410893,18.8384632 117.568179,18.9035669 L117.568179,20.1738392" id="Fill-57" fill="#FFFFFE"></path>
            <polyline id="Fill-58" fill="#FFFFFE" points="119.807485 19.7040124 119.807485 20.3853512 120.997722 20.3853512 120.997722 21.2833023 119.807485 21.2833023 119.807485 21.9856423 121.062785 21.9856423 121.062785 22.8829933 118.75394 22.8829933 118.75394 18.8057613 121.062785 18.8057613 121.062785 19.7040124 119.807485 19.7040124"></polyline>
            <path d="M124.414133,19.854321 C124.315942,19.7736164 124.207304,19.7082127 124.088221,19.6590099 C123.969137,19.609507 123.845279,19.5849056 123.715451,19.5849056 C123.666206,19.5849056 123.615469,19.5924061 123.562941,19.6059068 C123.510412,19.6203077 123.461764,19.6416089 123.417295,19.6695105 C123.372825,19.6980121 123.335518,19.7334141 123.306568,19.7766166 C123.277916,19.819819 123.263292,19.8693218 123.263292,19.925425 C123.263292,19.9854284 123.27911,20.0367314 123.311045,20.0787337 C123.342382,20.1210362 123.38148,20.1570382 123.429233,20.1870399 C123.47609,20.2167416 123.526827,20.2422431 123.581146,20.2623442 C123.635465,20.2827454 123.685307,20.2998463 123.731269,20.3136471 L123.998684,20.3958518 C124.140749,20.4381542 124.272666,20.4882571 124.394435,20.5476604 C124.516205,20.6064638 124.621858,20.679968 124.710797,20.768173 C124.800334,20.856078 124.870769,20.9604839 124.922103,21.0810908 C124.974034,21.2013976 125,21.3448058 125,21.5101152 C125,21.6103209 124.993136,21.7114267 124.980004,21.8122324 C124.96717,21.9136382 124.944189,22.0117438 124.911956,22.1068492 C124.879126,22.2019546 124.836148,22.2922597 124.78183,22.3777646 C124.727511,22.4629694 124.66006,22.5397738 124.579776,22.6084777 C124.420102,22.7443855 124.240433,22.841891 124.039573,22.9015944 C123.83931,22.9618978 123.635465,22.9915995 123.429233,22.9915995 C123.173457,22.9915995 122.923651,22.9504972 122.68041,22.8685925 C122.437169,22.7866879 122.210941,22.6729814 122.002918,22.5268731 L122.45448,21.6709244 C122.521035,21.7297277 122.589978,21.7840308 122.661906,21.8350337 C122.733535,21.8860366 122.809044,21.9307391 122.887836,21.9697414 C122.966926,22.0081436 123.048106,22.0387453 123.13227,22.0606465 C123.216136,22.0825478 123.302688,22.0939484 123.392224,22.0939484 C123.453408,22.0939484 123.514889,22.085848 123.576073,22.0702471 C123.637256,22.0540462 123.692171,22.0294448 123.740223,21.9961429 C123.788572,21.9622409 123.827073,21.9199385 123.857217,21.8680356 C123.886764,21.8158326 123.901985,21.7540291 123.901985,21.682025 C123.901985,21.6079208 123.879303,21.5452172 123.833639,21.4945143 C123.787975,21.4432114 123.732463,21.3994089 123.666504,21.3631068 C123.601143,21.3274048 123.531603,21.2980031 123.458183,21.2749018 C123.384763,21.2524005 123.319401,21.2328994 123.263292,21.2169985 C123.097053,21.1692958 122.946333,21.119793 122.81173,21.0690901 C122.67653,21.0177872 122.561326,20.9505834 122.466418,20.8671786 C122.370315,20.7837739 122.296597,20.6781679 122.243771,20.5515607 C122.19184,20.4246534 122.165576,20.2626442 122.165576,20.065233 C122.165576,19.8597213 122.199898,19.6722106 122.268841,19.503001 C122.338381,19.3340914 122.435379,19.1900832 122.559536,19.0712764 C122.683991,18.9527697 122.83113,18.8606644 123.001846,18.7952607 C123.173159,18.730157 123.359991,18.6977552 123.562941,18.6977552 C123.664415,18.6977552 123.771262,18.7055556 123.883481,18.7214565 C123.9957,18.7373574 124.106725,18.7598587 124.217153,18.7886603 C124.327283,18.817762 124.435324,18.853164 124.540081,18.8945664 C124.644839,18.9359687 124.74303,18.9821713 124.834358,19.0331742 L124.414133,19.854321" id="Fill-59" fill="#FFFFFE"></path>
        </g>
    </g>
</svg>