<?xml version="1.0" encoding="UTF-8"?>
<svg width="100px" height="18px" viewBox="0 0 100 18" version="1.1" xmlns="http://www.w3.org/2000/svg" xmlns:xlink="http://www.w3.org/1999/xlink">
    <title>UCDavis_CAES_logo_white Copy</title>
    <defs>
        <polygon id="path-1" points="0 0 6.69111608 0 6.69111608 3.38787107 0 3.38787107"></polygon>
    </defs>
    <g id="Style-guide" stroke="none" stroke-width="1" fill="none" fill-rule="evenodd">
        <g id="UCDavis_CAES_logo_white-Copy">
            <path d="M12.2466716,6.83850392 C12.3608007,4.83968582 11.9797337,2.92844662 11.2135408,1.21420123 C11.0492713,0.846275946 10.8608867,0.49173403 10.6622352,0.143766401 L0,0.143766401 L0,17.9913125 L3.07145722,17.9913125 C8.10913415,16.6384182 11.9365175,12.2482031 12.2466716,6.83850392" id="Fill-1" fill="#FFFFFE"></path>
            <path d="M11.8995091,0.143766401 C13.0057017,1.64857378 13.8163047,3.39827336 14.2186217,5.33580971 C15.2185644,10.1547622 13.4708135,14.8955277 10.033809,17.9913125 L18.150106,17.9913125 L18.150106,0.143766401 L11.8995091,0.143766401" id="Fill-2" fill="#FFFFFE"></path>
            <path d="M55.3342215,6.03268415 L55.9831815,4.34661428 L56.0954005,4.44264584 C56.4931809,4.76173356 57.0330258,5.0331577 57.5423089,5.04395832 C57.9978702,5.05428934 58.2201593,4.93501299 58.1597521,4.55581749 C58.1151032,4.27288835 57.789907,4.22287681 57.5864802,4.18366588 L57.1411858,4.09608698 C56.2744733,3.93666052 55.5455275,3.41095234 55.5455275,2.41447824 C55.5455275,0.908027287 56.8658912,0.0632313829 58.1938953,0.0632313829 C58.8913243,0.0632313829 59.5319275,0.237919585 60.1305083,0.621341406 L59.5682196,2.11534817 C59.2592593,1.89651832 58.7924761,1.58870081 58.2010582,1.56780397 C58.0067045,1.56052529 57.5611713,1.66125276 57.7037133,2.10525194 C57.7653143,2.2944975 58.0410865,2.37409333 58.2108475,2.41447824 L58.7141616,2.53398939 C59.652742,2.7490625 60.3325024,3.27500547 60.3325024,4.35084061 C60.3325024,5.86527462 59.0040208,6.61450857 57.6848509,6.61450857 C56.914599,6.61450857 56.023055,6.39896587 55.3342215,6.03268415" id="Fill-3" fill="#FFFFFE"></path>
            <polygon id="Fill-4" fill="#FFFFFE" points="52.5958398 6.5191814 54.856694 6.5191814 54.856694 0.166776406 52.5958398 0.166776406"></polygon>
            <polyline id="Fill-5" fill="#FFFFFE" points="50.0463202 0.16654161 52.3618513 0.16654161 49.9964185 6.5191814 48.1175864 6.5191814 45.7597941 0.16654161 48.067446 0.16654161 49.0573606 4.00005543 50.0463202 0.16654161"></polyline>
            <path d="M43.6448246,2.00029814 L43.6448246,2.00029814 C43.6858919,2.27054831 44.0908353,4.21489374 44.0908353,4.21489374 L43.2019178,4.21489374 L43.6448246,2.00029814 Z M40.2749126,6.5191814 L42.6241094,6.5191814 L42.8029435,5.72134469 L44.4790652,5.72134469 L44.701593,6.5191814 L47.0522224,6.5191814 L44.8520142,0.166776406 L42.3877333,0.166776406 L40.2749126,6.5191814 L40.2749126,6.5191814 Z" id="Fill-6" fill="#FFFFFE"></path>
            <g id="Group-10" transform="translate(27.0701, 0)" fill="#FFFFFE">
                <path d="M7.39618551,0.16654161 L9.71195538,0.16654161 C11.7789334,0.16654161 13.3576395,1.0996208 13.3576395,3.43466673 C13.3576395,5.31585205 12.0711803,6.5191814 10.2637385,6.5191814 L7.39618551,6.51565946 L7.39618551,0.16654161 Z M9.67232059,4.6952863 L9.82393559,4.6952863 C10.5691173,4.6952863 11.1220942,4.25551345 11.1220942,3.42644887 C11.1220942,2.53398939 10.6323897,2.03622193 9.81366875,2.03622193 L9.67232059,2.03622193 L9.67232059,4.6952863 L9.67232059,4.6952863 Z" id="Fill-7"></path>
                <path d="M6.04406624,0.36588339 L6.16488071,1.4086123 C6.19305484,1.65585245 6.3370294,2.24941667 6.15891162,2.17005563 C6.04812523,2.12121807 5.9566787,1.85214189 5.86594847,1.61288479 C5.81986706,1.49149527 5.59972685,0.917653922 5.54218478,0.875390647 C5.26354746,0.670883356 4.56946116,0.43984412 4.09981281,0.437730957 C2.67582565,0.432565445 1.73390255,1.46566772 1.73390255,3.29918946 C1.73390255,4.61404689 2.37378947,6.19140623 4.00239719,6.19140623 C4.58593586,6.19140623 5.70335033,6.01084813 6.00777415,5.19446253 C6.14530208,4.82489368 6.27089183,4.49641411 6.36186083,4.5964372 C6.42966974,4.66898915 6.34156591,4.96483207 6.30097607,5.12425854 C6.10900999,5.88100595 6.09850438,6.11040162 6.03809715,6.13975111 C5.30246595,6.50345007 4.35863274,6.62296122 3.5329876,6.62296122 C0.90658606,6.62296122 0,5.11627548 0,3.61005932 C0,0.996075776 1.63290547,-0.104882532 4.16356274,0.00781953373 C4.80392719,0.0312991308 5.4445304,0.143296809 6.04406624,0.36588339" id="Fill-9"></path>
            </g>
            <path d="M25.3605333,0.481872599 L24.9398315,0.337473077 C24.7991997,0.21256162 24.9711096,0.177577021 24.9711096,0.177577021 C24.9711096,0.177577021 25.5787634,0.288635515 27.0927645,0.162080487 C27.0927645,0.162080487 27.2240846,0.18814284 27.1335931,0.292861843 L26.6364869,0.502299849 C26.312962,0.641064268 26.312962,0.561468433 26.312962,0.910140451 L26.3100968,4.1475073 C26.3100968,6.67978185 23.6915745,6.62296122 23.1813363,6.62296122 C22.938036,6.62296122 20.5360724,6.62296122 20.5360724,4.5903325 L20.5360724,1.16301571 C20.5360724,0.565694761 20.6012549,0.581191295 20.3992608,0.511456892 L19.7918457,0.287226739 C19.7918457,0.287226739 19.6886998,0.143766401 19.8720704,0.152923444 C20.368699,0.177577021 21.087378,0.282061228 22.7780643,0.162080487 C22.7780643,0.162080487 22.9253815,0.197534678 22.8284435,0.302018885 L22.3229805,0.44219208 C21.9383321,0.611714771 21.9891888,0.481872599 21.9789219,0.870459931 L21.9910989,4.24940875 C21.9910989,5.07800373 22.4246939,6.10406213 23.7882738,6.10406213 C25.6444234,6.10406213 25.662092,4.52505922 25.662092,4.17380445 L25.6651959,0.826553085 C25.6850133,0.511456892 25.6444234,0.601148953 25.3605333,0.481872599" id="Fill-11" fill="#FFFFFE"></path>
            <polygon id="Fill-12" fill="#FFFFFE" points="20.53655 8.1918679 99.9763624 8.1918679 99.9763624 7.92654845 20.53655 7.92654845"></polygon>
            <path d="M22.8499322,10.8504627 C22.8067159,10.7924681 22.7570531,10.7417521 22.7018986,10.6985497 C22.6465055,10.6548776 22.5870533,10.6187191 22.5230646,10.5889 C22.4593147,10.5593157 22.3926996,10.5370101 22.322503,10.5217483 C22.2525452,10.5067214 22.1816324,10.4989731 22.110242,10.4989731 C21.9813096,10.4989731 21.863599,10.5217483 21.7568716,10.5672987 C21.6506217,10.6126144 21.559414,10.6755397 21.4839646,10.7553703 C21.4082765,10.8352009 21.3493019,10.9288845 21.3072794,11.0364211 C21.2654958,11.1437228 21.2444846,11.2597121 21.2444846,11.3836843 C21.2444846,11.5104742 21.2654958,11.6266982 21.3072794,11.7328259 C21.3493019,11.8389537 21.4089928,11.9302894 21.4858747,12.0068328 C21.5629954,12.0831415 21.6556358,12.1432493 21.7633182,12.1864518 C21.8712395,12.2296542 21.9908601,12.2512554 22.1228965,12.2512554 C22.1914217,12.2512554 22.2594694,12.243742 22.327517,12.2277758 C22.3955647,12.2120445 22.4607472,12.1892693 22.5230646,12.159685 C22.5853819,12.1298659 22.6443566,12.0944117 22.699511,12.0530876 C22.7549042,12.0117636 22.8052834,11.9650392 22.8499322,11.9126797 L22.8499322,12.9068058 C22.7797356,12.927233 22.7140756,12.9469559 22.6524745,12.9657396 C22.5908735,12.9840537 22.5304663,13.0000198 22.4714916,13.0131684 C22.4127557,13.0263169 22.3537811,13.036648 22.2938514,13.0441614 C22.2343992,13.0519097 22.1716043,13.0556664 22.106183,13.0556664 C21.8788799,13.0556664 21.6613661,13.0148119 21.4534029,12.9335725 C21.2452008,12.8523331 21.0565775,12.7365787 20.8868164,12.5863093 C20.7077436,12.426648 20.575946,12.244916 20.4919011,12.0418174 C20.4078563,11.8387189 20.3658339,11.6177759 20.3658339,11.3796928 C20.3658339,11.1603934 20.4066625,10.950251 20.4878421,10.7492656 C20.5690218,10.5480455 20.688165,10.3688961 20.8450328,10.2118176 C20.9250186,10.131987 21.0124062,10.0599046 21.1076729,9.99580535 C21.2029397,9.93194084 21.303698,9.87723338 21.4094703,9.83238735 C21.5147652,9.78777612 21.6245965,9.7534959 21.738248,9.7302511 C21.8516608,9.70677151 21.9650736,9.69503171 22.0784864,9.69503171 C22.2145818,9.69503171 22.3456631,9.70935426 22.4714916,9.73752978 C22.5977976,9.76594009 22.7238649,9.80538581 22.8499322,9.85657134 L22.8499322,10.8504627" id="Fill-13" fill="#FFFFFE"></path>
            <path d="M25.2817413,10.4783111 C25.155674,10.4783111 25.0370084,10.5013211 24.9264608,10.5475759 C24.8159131,10.5938307 24.7187363,10.6558168 24.6354077,10.7337691 C24.5523179,10.8114866 24.4861804,10.9011786 24.4379501,11.0021409 C24.3897198,11.1035727 24.3653659,11.2094657 24.3653659,11.319585 C24.3653659,11.4574103 24.3897198,11.5844349 24.4379501,11.7008937 C24.4861804,11.8171177 24.5523179,11.9176104 24.6354077,12.0023717 C24.7187363,12.0871331 24.8159131,12.1533455 24.9264608,12.2007743 C25.0370084,12.2484379 25.155674,12.2723871 25.2817413,12.2723871 C25.4075698,12.2723871 25.5264741,12.2484379 25.637738,12.2007743 C25.7492407,12.1533455 25.8464176,12.0871331 25.9287911,12.0023717 C26.0114034,11.9176104 26.0770634,11.8171177 26.1250549,11.7008937 C26.1737627,11.5844349 26.1981166,11.4574103 26.1981166,11.319585 C26.1981166,11.2094657 26.1737627,11.1035727 26.1250549,11.0021409 C26.0770634,10.9011786 26.0114034,10.8114866 25.9287911,10.7337691 C25.8464176,10.6558168 25.7492407,10.5938307 25.637738,10.5475759 C25.5264741,10.5013211 25.4075698,10.4783111 25.2817413,10.4783111 M25.2817413,9.67436966 C25.4371765,9.67436966 25.5895078,9.69268375 25.7387351,9.72931192 C25.8879625,9.76594009 26.0290719,9.8175952 26.1620633,9.88521644 C26.2952935,9.95260289 26.4180181,10.0352511 26.5299983,10.1322218 C26.6422173,10.2294273 26.7384391,10.3388423 26.8189025,10.4609362 C26.8996046,10.5827953 26.9626382,10.715455 27.0082421,10.8586805 C27.0536072,11.0019061 27.0765286,11.1542887 27.0765286,11.3153587 C27.0765286,11.5743387 27.0321185,11.8117174 26.9430596,12.0272601 C26.8540007,12.2430376 26.7296048,12.4282916 26.5698718,12.5832569 C26.4101389,12.7384571 26.2207992,12.8591422 26.0013753,12.9460167 C25.7821901,13.0326564 25.5422325,13.0760937 25.2817413,13.0760937 C25.1076825,13.0760937 24.9429355,13.0566056 24.7867839,13.0173947 C24.6306324,12.9781838 24.4861804,12.9218327 24.3536665,12.8488112 C24.2213913,12.7760244 24.1017707,12.6870368 23.9945657,12.5832569 C23.887122,12.4792423 23.796153,12.3618443 23.7211812,12.231063 C23.6464482,12.1000468 23.5884286,11.9575257 23.5480775,11.8042039 C23.5074876,11.6504126 23.4869539,11.4876989 23.4869539,11.3153587 C23.4869539,11.1542887 23.5098753,11.0019061 23.5552404,10.8586805 C23.6008443,10.715455 23.6641167,10.5827953 23.7455351,10.4609362 C23.8267148,10.3388423 23.9229366,10.2294273 24.0344393,10.1322218 C24.1457032,10.0352511 24.268189,9.95260289 24.4011804,9.88521644 C24.5341719,9.8175952 24.6752813,9.76594009 24.8245086,9.72931192 C24.9739747,9.69268375 25.1260673,9.67436966 25.2817413,9.67436966" id="Fill-14" fill="#FFFFFE"></path>
            <polyline id="Fill-15" fill="#FFFFFE" points="28.6435352 12.2681608 29.6566099 12.2681608 29.6566099 12.9709051 27.8006991 12.9709051 27.8006991 9.77979305 28.6435352 9.77979305 28.6435352 12.2681608"></polyline>
            <polyline id="Fill-16" fill="#FFFFFE" points="31.256566 12.2681608 32.2696407 12.2681608 32.2696407 12.9709051 30.4137299 12.9709051 30.4137299 9.77979305 31.256566 9.77979305 31.256566 12.2681608"></polyline>
            <polyline id="Fill-17" fill="#FFFFFE" points="33.8695968 10.4825374 33.8695968 11.0155242 34.8213092 11.0155242 34.8213092 11.7185034 33.8695968 11.7185034 33.8695968 12.2681608 34.874076 12.2681608 34.874076 12.9704355 33.0267606 12.9704355 33.0267606 9.77979305 34.874076 9.77979305 34.874076 10.4825374 33.8695968 10.4825374"></polyline>
            <path d="M39.0297595,11.1892733 C39.0273719,11.3050277 39.0221191,11.4172602 39.0151949,11.5262055 C39.0082708,11.634916 38.9929899,11.7415134 38.9698298,11.845528 C38.9471473,11.9493078 38.9139591,12.0516789 38.8712204,12.1512324 C38.8284817,12.2512554 38.7704621,12.3508089 38.6978779,12.4501276 C38.617892,12.5588382 38.5288331,12.6527566 38.4311787,12.7318828 C38.3328081,12.8112438 38.2270357,12.8765171 38.1133841,12.9274678 C38.0002101,12.9781838 37.8803507,13.0159859 37.7545222,13.0399351 C37.6279774,13.0641191 37.4968961,13.0760937 37.3612782,13.0760937 C37.1062785,13.0760937 36.8725288,13.035474 36.6605066,12.9544694 C36.4482456,12.8729952 36.2655913,12.7584147 36.1130212,12.6102585 C35.9602124,12.4618674 35.8415468,12.2848313 35.7565469,12.077976 C35.6717858,11.8713556 35.6295246,11.6426643 35.6295246,11.3916674 C35.6295246,11.1326874 35.6722633,10.8974219 35.7577407,10.6861055 C35.8432182,10.4747891 35.9635551,10.294231 36.1180353,10.144666 C36.2727542,9.99533575 36.4582736,9.87958134 36.6741161,9.79740275 C36.8897198,9.71545896 37.1284836,9.67436966 37.3906462,9.67436966 C37.7241992,9.67436966 38.0162073,9.74856519 38.2669093,9.89672145 C38.51785,10.0448777 38.7131587,10.2684035 38.8533131,10.5672987 L38.0529769,10.8960131 C38.0233702,10.820174 37.986123,10.7513788 37.9414742,10.6893926 C37.8961091,10.6271717 37.8445361,10.5736382 37.7858002,10.529027 C37.7268256,10.484181 37.6611655,10.4499008 37.5881038,10.4257168 C37.5152809,10.4017676 37.4362501,10.389793 37.3510114,10.389793 C37.2122896,10.389793 37.0898038,10.4191425 36.9849865,10.4785459 C36.8799305,10.5377144 36.7920654,10.6151971 36.7211526,10.7107591 C36.6504785,10.8067906 36.5972342,10.914562 36.5616584,11.0343079 C36.5258438,11.1542887 36.5079365,11.274739 36.5079365,11.3961285 C36.5079365,11.5201008 36.5265601,11.6414903 36.5635685,11.7610015 C36.6008156,11.8798082 36.6554925,11.9866404 36.7275992,12.0810284 C36.7997058,12.1754163 36.8892423,12.2512554 36.996686,12.3085457 C37.1036521,12.3658359 37.2268542,12.3942462 37.365576,12.3942462 C37.4563062,12.3942462 37.5415449,12.3827412 37.6208145,12.3590268 C37.6998453,12.3355472 37.7690868,12.3005626 37.8287777,12.2547774 C37.8882299,12.2085226 37.9369377,12.1509976 37.9746624,12.0819675 C38.0126258,12.0131723 38.0357859,11.9326373 38.0441426,11.8403625 L37.3550704,11.8403625 L37.3550704,11.1892733 L39.0297595,11.1892733" id="Fill-18" fill="#FFFFFE"></path>
            <polyline id="Fill-19" fill="#FFFFFE" points="40.5864993 10.4825374 40.5864993 11.0155242 41.5384505 11.0155242 41.5384505 11.7185034 40.5864993 11.7185034 40.5864993 12.2681608 41.5909785 12.2681608 41.5909785 12.9704355 39.7436632 12.9704355 39.7436632 9.77979305 41.5909785 9.77979305 41.5909785 10.4825374 40.5864993 10.4825374"></polyline>
            <path d="M45.1308903,11.1911516 C45.0408764,11.1911516 44.956354,11.2075874 44.8773232,11.2404588 C44.7982924,11.2737998 44.7288121,11.3177067 44.6695987,11.3735881 C44.6099077,11.4292347 44.5628713,11.4930993 44.5284893,11.5651816 C44.4938685,11.6374988 44.4769163,11.7133379 44.4769163,11.7915249 C44.4769163,11.890374 44.4938685,11.9807705 44.5284893,12.0641231 C44.5628713,12.1472408 44.6099077,12.2188536 44.6695987,12.2796658 C44.7288121,12.3397735 44.7982924,12.3872023 44.8773232,12.4212477 C44.956354,12.4550583 45.0408764,12.4721985 45.1308903,12.4721985 C45.2209042,12.4721985 45.3056654,12.4550583 45.3851737,12.4212477 C45.4649208,12.3872023 45.5341623,12.3397735 45.593137,12.2796658 C45.6521116,12.2188536 45.6986706,12.1472408 45.7332913,12.0641231 C45.7676733,11.9807705 45.7851031,11.890374 45.7851031,11.7915249 C45.7851031,11.7133379 45.7676733,11.6374988 45.7332913,11.5651816 C45.6986706,11.4930993 45.6521116,11.4292347 45.593137,11.3735881 C45.5341623,11.3177067 45.4649208,11.2737998 45.3851737,11.2404588 C45.3056654,11.2075874 45.2209042,11.1911516 45.1308903,11.1911516 M45.1308903,10.6173103 C45.2419155,10.6173103 45.350553,10.6302241 45.4570416,10.6562864 C45.563769,10.6825836 45.6642886,10.7194465 45.7595553,10.7678145 C45.8543445,10.8157129 45.9424484,10.8744119 46.0221955,10.9441463 C46.1019426,11.0134111 46.1711841,11.0913633 46.2284874,11.1787074 C46.2857907,11.2658168 46.3306783,11.3604395 46.3636277,11.4628106 C46.3958608,11.5649468 46.4120967,11.6736574 46.4120967,11.7887074 C46.4120967,11.9737266 46.3803411,12.1434841 46.31683,12.2970407 C46.2533188,12.450832 46.1649762,12.5834917 46.0506084,12.6943154 C45.936718,12.8046695 45.8015778,12.8913093 45.6447099,12.9532954 C45.4880809,13.0150467 45.317126,13.0460398 45.1308903,13.0460398 C45.0067331,13.0460398 44.8890226,13.0324216 44.7775199,13.0040113 C44.6657785,12.9758358 44.5628713,12.9361553 44.4683208,12.8833262 C44.3737704,12.8316711 44.2882929,12.768511 44.2116498,12.6943154 C44.1352454,12.6196503 44.0703016,12.5358282 44.0165798,12.4423794 C43.9633354,12.3491654 43.9220293,12.2472639 43.8931389,12.1380838 C43.8637709,12.0279645 43.8494451,11.9117405 43.8494451,11.7887074 C43.8494451,11.6736574 43.865681,11.5649468 43.8986305,11.4628106 C43.9308636,11.3604395 43.9759899,11.2658168 44.0340095,11.1787074 C44.0920291,11.0913633 44.1610318,11.0134111 44.2403014,10.9441463 C44.3198098,10.8744119 44.4071973,10.8157129 44.5022253,10.7678145 C44.5972533,10.7194465 44.6980116,10.6825836 44.8045002,10.6562864 C44.9112276,10.6302241 45.0196264,10.6173103 45.1308903,10.6173103" id="Fill-20" fill="#FFFFFE"></path>
            <polyline id="Fill-21" fill="#FFFFFE" points="47.4137108 11.194204 47.4137108 11.5748083 48.075564 11.5748083 48.075564 12.0765672 47.4137108 12.0765672 47.4137108 12.9709051 46.8120261 12.9709051 46.8120261 10.6926798 48.1428953 10.6926798 48.1428953 11.194204 47.4137108 11.194204"></polyline>
            <path d="M51.6882987,10.7657013 L51.6801807,10.7657013 L51.3311081,11.7823679 L52.0328348,11.7823679 L51.6882987,10.7657013 Z M51.0978358,12.4167866 L50.8750692,12.9704355 L49.9799438,12.9704355 L51.2282009,9.77979305 L52.1486352,9.77979305 L53.3718221,12.9704355 L52.4723989,12.9704355 L52.2601379,12.4167866 L51.0978358,12.4167866 L51.0978358,12.4167866 Z" id="Fill-22" fill="#FFFFFE"></path>
            <path d="M57.2431379,11.1892733 C57.2402728,11.3050277 57.2352587,11.4172602 57.2285733,11.5262055 C57.2214104,11.634916 57.2063683,11.7415134 57.1832082,11.845528 C57.1602869,11.9493078 57.1270987,12.0516789 57.0845988,12.1512324 C57.0416213,12.2512554 56.9838405,12.3508089 56.9110175,12.4501276 C56.8312704,12.5588382 56.7422115,12.6527566 56.6443184,12.7318828 C56.5461865,12.8112438 56.4404141,12.8765171 56.3267626,12.9274678 C56.2135885,12.9781838 56.0937291,13.0159859 55.9676618,13.0399351 C55.841117,13.0641191 55.7102745,13.0760937 55.5746567,13.0760937 C55.3194182,13.0760937 55.0856684,13.035474 54.8736462,12.9544694 C54.6611464,12.8729952 54.4787309,12.7584147 54.3261609,12.6102585 C54.1735908,12.4618674 54.0549252,12.2848313 53.9701641,12.077976 C53.8849254,11.8713556 53.842903,11.6426643 53.842903,11.3916674 C53.842903,11.1326874 53.8856417,10.8974219 53.9708804,10.6861055 C54.0565966,10.4747891 54.1766947,10.294231 54.3314137,10.144666 C54.4863714,9.99533575 54.6716521,9.87958134 54.8872557,9.79740275 C55.103337,9.71545896 55.3421007,9.67436966 55.6040246,9.67436966 C55.9375776,9.67436966 56.2293469,9.74856519 56.4800489,9.89672145 C56.7309896,10.0448777 56.9262984,10.2684035 57.0666915,10.5672987 L56.2661166,10.8960131 C56.2365098,10.820174 56.1992627,10.7513788 56.1546139,10.6893926 C56.1097263,10.6271717 56.0581533,10.5736382 55.9989399,10.529027 C55.940204,10.484181 55.874544,10.4499008 55.8014822,10.4257168 C55.7284205,10.4017676 55.6496285,10.389793 55.5639123,10.389793 C55.4251905,10.389793 55.3036598,10.4191425 55.1981262,10.4785459 C55.0933089,10.5377144 55.0054438,10.6151971 54.9347697,10.7107591 C54.8638569,10.8067906 54.8106126,10.914562 54.7750368,11.0343079 C54.7392222,11.1542887 54.7213149,11.274739 54.7213149,11.3961285 C54.7213149,11.5201008 54.7396997,11.6414903 54.7767081,11.7610015 C54.814194,11.8798082 54.8686322,11.9866404 54.9409776,12.0810284 C55.0130843,12.1754163 55.1028594,12.2512554 55.2098256,12.3085457 C55.3170305,12.3658359 55.4399939,12.3942462 55.5787156,12.3942462 C55.6696846,12.3942462 55.7546845,12.3827412 55.8339541,12.3590268 C55.9129849,12.3355472 55.9824652,12.3005626 56.0421561,12.2547774 C56.1016083,12.2085226 56.1503161,12.1509976 56.1880408,12.0819675 C56.2260042,12.0131723 56.2491643,11.9326373 56.2575211,11.8403625 L55.5684488,11.8403625 L55.5684488,11.1892733 L57.2431379,11.1892733" id="Fill-23" fill="#FFFFFE"></path>
            <path d="M58.9720264,11.2101701 L59.0536836,11.2101701 C59.1224476,11.2101701 59.1919279,11.2054742 59.2618857,11.1965519 C59.3320822,11.1876297 59.3948771,11.1690808 59.4512253,11.1409053 C59.5070961,11.1122602 59.5524612,11.0725797 59.5875595,11.0209246 C59.622419,10.9695042 59.6400875,10.9002394 59.6400875,10.8131301 C59.6400875,10.7264904 59.622419,10.656756 59.5875595,10.6043965 C59.5524612,10.552037 59.5070961,10.5116521 59.4512253,10.4834766 C59.3948771,10.4553011 59.3320822,10.4367522 59.2618857,10.4275951 C59.1919279,10.4186729 59.1224476,10.4144466 59.0536836,10.4144466 L58.9720264,10.4144466 L58.9720264,11.2101701 Z M60.8274597,12.9709051 L59.7766604,12.9709051 L58.982532,11.7433918 L58.9720264,11.7433918 L58.9720264,12.9709051 L58.1291903,12.9709051 L58.1291903,9.77979305 L59.3901018,9.77979305 C59.5498348,9.77979305 59.6985846,9.79904632 59.8365901,9.83778766 C59.9745955,9.87652899 60.0942162,9.93546278 60.1949745,10.015763 C60.2959716,10.0953588 60.3750024,10.1970255 60.4323057,10.3200586 C60.4898478,10.4435613 60.5184994,10.5905435 60.5184994,10.7612402 C60.5184994,10.8718291 60.5032185,10.9765481 60.472418,11.076806 C60.4413787,11.1768291 60.3957748,11.2665211 60.3356064,11.3463518 C60.2754379,11.4264172 60.2011824,11.4938036 60.1128398,11.5489807 C60.0247359,11.6041577 59.9230226,11.6419599 59.8084159,11.6626219 L60.8274597,12.9709051 L60.8274597,12.9709051 Z" id="Fill-24" fill="#FFFFFE"></path>
            <polygon id="Fill-25" fill="#FFFFFE" points="61.559987 12.9704355 62.4028231 12.9704355 62.4028231 9.77979305 61.559987 9.77979305"></polygon>
            <path d="M65.6932267,10.8504627 C65.6497717,10.7924681 65.6003476,10.7417521 65.5449544,10.6985497 C65.4898,10.6548776 65.4301091,10.6187191 65.3661204,10.5889 C65.3026092,10.5593157 65.2357554,10.5370101 65.1655588,10.5217483 C65.095601,10.5067214 65.0249269,10.4989731 64.9535366,10.4989731 C64.8246041,10.4989731 64.7066548,10.5217483 64.6001662,10.5672987 C64.4936775,10.6126144 64.4024698,10.6755397 64.3272592,10.7553703 C64.2513323,10.8352009 64.1925964,10.9288845 64.150574,11.0364211 C64.1085516,11.1437228 64.0877791,11.2597121 64.0877791,11.3836843 C64.0877791,11.5104742 64.1085516,11.6266982 64.150574,11.7328259 C64.1925964,11.8389537 64.2520486,11.9302894 64.3289305,12.0068328 C64.40629,12.0831415 64.4986916,12.1432493 64.606374,12.1864518 C64.7147728,12.2296542 64.8341547,12.2512554 64.9659523,12.2512554 C65.0344775,12.2512554 65.1030027,12.243742 65.1708116,12.2277758 C65.2388593,12.2120445 65.303803,12.1892693 65.3661204,12.159685 C65.4286765,12.1298659 65.4876511,12.0944117 65.5428056,12.0530876 C65.59796,12.0117636 65.6483392,11.9650392 65.6932267,11.9126797 L65.6932267,12.9068058 C65.6230302,12.927233 65.5573702,12.9469559 65.4955303,12.9657396 C65.4339293,12.9840537 65.3735221,13.0000198 65.3147862,13.0131684 C65.2558115,13.0263169 65.1968369,13.036648 65.1371459,13.0441614 C65.0776937,13.0519097 65.0148989,13.0556664 64.9492388,13.0556664 C64.7224132,13.0556664 64.5046607,13.0148119 64.2966974,12.9335725 C64.0884954,12.8523331 63.8996333,12.7365787 63.7303497,12.5863093 C63.5510381,12.426648 63.4192405,12.244916 63.3351957,12.0418174 C63.2511508,11.8387189 63.2091284,11.6177759 63.2091284,11.3796928 C63.2091284,11.1603934 63.2497183,10.950251 63.3311367,10.7492656 C63.4120776,10.5480455 63.5314595,10.3688961 63.6883273,10.2118176 C63.7680744,10.131987 63.8557007,10.0599046 63.9507287,9.99580535 C64.0462342,9.93194084 64.1467538,9.87723338 64.2525261,9.83238735 C64.3585372,9.78777612 64.4676523,9.7534959 64.5813038,9.7302511 C64.6949554,9.70677151 64.8081294,9.69503171 64.9220198,9.69503171 C65.0578763,9.69503171 65.1887189,9.70935426 65.3147862,9.73752978 C65.4408534,9.76594009 65.5671595,9.80538581 65.6932267,9.85657134 L65.6932267,10.8504627" id="Fill-26" fill="#FFFFFE"></path>
            <path d="M69.514641,9.77979305 L69.514641,11.5736343 C69.514641,11.6769445 69.5122534,11.7790807 69.5072393,11.8795734 C69.502464,11.9803009 69.4888545,12.0782108 69.4664107,12.1742424 C69.4439669,12.2698043 69.4100625,12.3623139 69.3642198,12.4513016 C69.3188547,12.5400545 69.2562986,12.6229375 69.1763127,12.6999505 C69.1089813,12.766163 69.0328157,12.8215749 68.9473383,12.8664209 C68.8618608,12.9112669 68.7720856,12.9476603 68.6782515,12.9758358 C68.5841786,13.0042461 68.4879568,13.0244386 68.3888698,13.0371176 C68.2904991,13.0490922 68.1940385,13.0554316 68.1002044,13.0554316 C68.0049376,13.0554316 67.9079995,13.0490922 67.8091513,13.0371176 C67.7103031,13.0244386 67.6145589,13.0042461 67.5209635,12.9758358 C67.4280844,12.9476603 67.3387867,12.9112669 67.2533093,12.8664209 C67.1680706,12.8215749 67.0914274,12.766163 67.024096,12.6999505 C66.9431551,12.6229375 66.879644,12.5400545 66.8342788,12.4513016 C66.7884362,12.3623139 66.7547705,12.2698043 66.7323267,12.1742424 C66.7098829,12.0782108 66.6957958,11.9803009 66.6914981,11.8795734 C66.6862453,11.7790807 66.6838577,11.6769445 66.6838577,11.5736343 L66.6838577,9.77979305 L67.5266938,9.77979305 L67.5266938,11.459993 C67.5266938,11.5287882 67.5283651,11.5987574 67.5319466,11.6687266 C67.5350505,11.7391654 67.5429297,11.8060823 67.5548679,11.8704164 C67.5668061,11.9340461 67.5849522,11.9943887 67.6095448,12.0500353 C67.6341375,12.1059167 67.6675644,12.1542847 67.7103031,12.1956088 C67.7532806,12.2369329 67.8060474,12.2695695 67.8688423,12.2930491 C67.9321147,12.3162939 68.0089966,12.3280337 68.1002044,12.3280337 C68.1899796,12.3280337 68.2666227,12.3162939 68.3303727,12.2930491 C68.3941226,12.2695695 68.4471281,12.2369329 68.4891506,12.1956088 C68.531173,12.1542847 68.5643612,12.1059167 68.5887151,12.0500353 C68.6135465,11.9943887 68.6321701,11.9340461 68.6445858,11.8704164 C68.6570015,11.8060823 68.6648807,11.7391654 68.6675071,11.6687266 C68.6703723,11.5987574 68.6720436,11.5287882 68.6720436,11.459993 L68.6720436,9.77979305 L69.514641,9.77979305" id="Fill-27" fill="#FFFFFE"></path>
            <polyline id="Fill-28" fill="#FFFFFE" points="71.3992035 12.2681608 72.4120394 12.2681608 72.4120394 12.9709051 70.5561286 12.9709051 70.5561286 9.77979305 71.3992035 9.77979305 71.3992035 12.2681608"></polyline>
            <polyline id="Fill-29" fill="#FFFFFE" points="74.2314194 12.9709051 73.388822 12.9709051 73.388822 10.4827722 72.6911543 10.4827722 72.6911543 9.77979305 74.9295647 9.77979305 74.9295647 10.4827722 74.2314194 10.4827722 74.2314194 12.9709051"></polyline>
            <path d="M78.5191393,9.77979305 L78.5191393,11.5736343 C78.5191393,11.6769445 78.5167517,11.7790807 78.5117376,11.8795734 C78.5069624,11.9803009 78.4933528,12.0782108 78.4711478,12.1742424 C78.4484652,12.2698043 78.4145608,12.3623139 78.3689569,12.4513016 C78.323353,12.5400545 78.2610357,12.6229375 78.1812886,12.6999505 C78.1137184,12.766163 78.0370752,12.8215749 77.9520753,12.8664209 C77.8663591,12.9112669 77.776584,12.9476603 77.6827498,12.9758358 C77.5886769,13.0042461 77.4926938,13.0244386 77.3936069,13.0371176 C77.2952362,13.0490922 77.1985369,13.0554316 77.1049415,13.0554316 C77.0099135,13.0554316 76.9124979,13.0490922 76.8136496,13.0371176 C76.7148014,13.0244386 76.6190572,13.0042461 76.5259393,12.9758358 C76.4328214,12.9476603 76.3435238,12.9112669 76.2580463,12.8664209 C76.1725689,12.8215749 76.0964033,12.766163 76.0290719,12.6999505 C75.9476534,12.6229375 75.8841423,12.5400545 75.8387771,12.4513016 C75.7931733,12.3623139 75.75903,12.2698043 75.736825,12.1742424 C75.7143812,12.0782108 75.7005329,11.9803009 75.6959964,11.8795734 C75.6907436,11.7790807 75.688356,11.6769445 75.688356,11.5736343 L75.688356,9.77979305 L76.5311921,9.77979305 L76.5311921,11.459993 C76.5311921,11.5287882 76.5328634,11.5987574 76.5364449,11.6687266 C76.5397876,11.7391654 76.5476668,11.8060823 76.559605,11.8704164 C76.5715432,11.9340461 76.5894505,11.9943887 76.6142819,12.0500353 C76.6388746,12.1059167 76.6723015,12.1542847 76.7148014,12.1956088 C76.7577789,12.2369329 76.8107845,12.2695695 76.8735794,12.2930491 C76.936613,12.3162939 77.0137337,12.3280337 77.1049415,12.3280337 C77.1944779,12.3280337 77.2713598,12.3162939 77.3351097,12.2930491 C77.3988597,12.2695695 77.4516265,12.2369329 77.4938876,12.1956088 C77.5359101,12.1542847 77.5686207,12.1059167 77.5936909,12.0500353 C77.6182836,11.9943887 77.6366684,11.9340461 77.6488453,11.8704164 C77.6617386,11.8060823 77.669379,11.7391654 77.6722442,11.6687266 C77.6751094,11.5987574 77.6765419,11.5287882 77.6765419,11.459993 L77.6765419,9.77979305 L78.5191393,9.77979305" id="Fill-30" fill="#FFFFFE"></path>
            <path d="M80.4037018,11.2101701 L80.485359,11.2101701 C80.554123,11.2101701 80.6236032,11.2054742 80.6933223,11.1965519 C80.7635188,11.1876297 80.8267912,11.1690808 80.8829007,11.1409053 C80.9390102,11.1122602 80.9843753,11.0725797 81.0197123,11.0209246 C81.0545718,10.9695042 81.0717628,10.9002394 81.0717628,10.8131301 C81.0717628,10.7264904 81.0545718,10.656756 81.0197123,10.6043965 C80.9843753,10.552037 80.9390102,10.5116521 80.8829007,10.4834766 C80.8267912,10.4553011 80.7635188,10.4367522 80.6933223,10.4275951 C80.6236032,10.4186729 80.554123,10.4144466 80.485359,10.4144466 L80.4037018,10.4144466 L80.4037018,11.2101701 Z M82.2593739,12.9709051 L81.2083357,12.9709051 L80.4142074,11.7433918 L80.4037018,11.7433918 L80.4037018,12.9709051 L79.5608657,12.9709051 L79.5608657,9.77979305 L80.8217772,9.77979305 C80.9812714,9.77979305 81.13026,9.79904632 81.2685042,9.83778766 C81.4065097,9.87652899 81.5261303,9.93546278 81.6268886,10.015763 C81.7274082,10.0953588 81.8066777,10.1970255 81.8642198,10.3200586 C81.9215231,10.4435613 81.9501748,10.5905435 81.9501748,10.7612402 C81.9501748,10.8718291 81.9348939,10.9765481 81.9040934,11.076806 C81.8732928,11.1768291 81.827689,11.2665211 81.7675205,11.3463518 C81.707352,11.4264172 81.6330965,11.4938036 81.5447539,11.5489807 C81.45665,11.6041577 81.3549367,11.6419599 81.2400913,11.6626219 L82.2593739,12.9709051 L82.2593739,12.9709051 Z" id="Fill-31" fill="#FFFFFE"></path>
            <path d="M84.5543713,10.7657013 L84.5464921,10.7657013 L84.1971807,11.7823679 L84.8991462,11.7823679 L84.5543713,10.7657013 Z M83.9641472,12.4167866 L83.7416194,12.9704355 L82.8460165,12.9704355 L84.094751,9.77979305 L85.0149466,9.77979305 L86.2378947,12.9704355 L85.3384715,12.9704355 L85.1264493,12.4167866 L83.9641472,12.4167866 L83.9641472,12.4167866 Z" id="Fill-32" fill="#FFFFFE"></path>
            <polyline id="Fill-33" fill="#FFFFFE" points="87.8278227 12.2681608 88.8406586 12.2681608 88.8406586 12.9709051 86.9849865 12.9709051 86.9849865 9.77979305 87.8278227 9.77979305 87.8278227 12.2681608"></polyline>
            <path d="M21.4624759,16.3343574 L21.456268,16.3343574 L21.2072374,17.0601117 L21.7086413,17.0601117 L21.4624759,16.3343574 Z M21.0408191,17.513268 L20.8818024,17.9086644 L20.242393,17.9086644 L21.1339369,15.6304391 L21.7910148,15.6304391 L22.664174,17.9086644 L22.0218994,17.9086644 L21.8705232,17.513268 L21.0408191,17.513268 L21.0408191,17.513268 Z" id="Fill-34" fill="#FFFFFE"></path>
            <polyline id="Fill-35" fill="#FFFFFE" points="22.9588085 15.6304391 23.5604932 15.6304391 24.6647757 17.0232488 24.6712223 17.0232488 24.6712223 15.6304391 25.2724295 15.6304391 25.2724295 17.9086644 24.6712223 17.9086644 23.5681336 16.5125675 23.5604932 16.5125675 23.5604932 17.9086644 22.9588085 17.9086644 22.9588085 15.6304391"></polyline>
            <path d="M26.3917541,17.4071402 L26.5285657,17.4071402 C26.6183409,17.4071402 26.7038183,17.394696 26.7842817,17.3702772 C26.8647451,17.3456236 26.9354192,17.3068823 26.9958264,17.2549924 C27.0564724,17.2031025 27.1047027,17.1366552 27.1405173,17.0565898 C27.1765706,16.9762896 27.1944779,16.8807276 27.1944779,16.7694343 C27.1944779,16.6672981 27.1782419,16.5761972 27.1457701,16.497071 C27.1132982,16.4181795 27.0679331,16.3514975 27.0094359,16.2974944 C26.9507001,16.2432565 26.8812198,16.2021672 26.8007564,16.1742265 C26.720293,16.146051 26.6314729,16.1317285 26.534296,16.1317285 L26.3917541,16.1317285 L26.3917541,17.4071402 Z M25.7903081,15.6304391 L26.6441274,15.6304391 C26.7510935,15.6304391 26.854717,15.6435876 26.954759,15.6701196 C27.0548011,15.6966515 27.1483965,15.7344537 27.2360228,15.7830564 C27.3236491,15.8316592 27.4031574,15.890593 27.4752641,15.9593882 C27.5473707,16.0284182 27.608733,16.1051965 27.6600672,16.1897231 C27.7106852,16.2744844 27.7505587,16.3653504 27.7792104,16.4634952 C27.807862,16.5609355 27.8217103,16.6630717 27.8217103,16.7694343 C27.8217103,16.8757969 27.807862,16.9779331 27.7792104,17.0758431 C27.7505587,17.1735182 27.7104464,17.2650886 27.6591122,17.3493804 C27.6075392,17.4339069 27.5456994,17.5106852 27.4735927,17.5794804 C27.4017248,17.6482756 27.3222165,17.7069746 27.2353065,17.7558122 C27.1481577,17.804415 27.0548011,17.8422171 26.954759,17.8687491 C26.854717,17.895281 26.7510935,17.9086644 26.6441274,17.9086644 L25.7903081,17.9086644 L25.7903081,15.6304391 L25.7903081,15.6304391 Z" id="Fill-36" fill="#FFFFFE"></path>
            <polyline id="Fill-37" fill="#FFFFFE" points="30.7379711 15.4205315 30.7379711 15.9537531 31.6899223 15.9537531 31.6899223 16.6564975 30.7379711 16.6564975 30.7379711 17.2061548 31.7424503 17.2061548 31.7424503 17.9084296 29.8953737 17.9084296 29.8953737 14.7175523 31.7424503 14.7175523 31.7424503 15.4205315 30.7379711 15.4205315"></polyline>
            <polyline id="Fill-38" fill="#FFFFFE" points="32.6896262 14.7177871 33.5322236 14.7177871 35.0786965 16.6687068 35.087292 16.6687068 35.087292 14.7177871 35.9301282 14.7177871 35.9301282 17.9086644 35.087292 17.9086644 33.5427292 15.9537531 33.5322236 15.9537531 33.5322236 17.9086644 32.6896262 17.9086644 32.6896262 14.7177871"></polyline>
            <polyline id="Fill-39" fill="#FFFFFE" points="38.2525834 16.6564975 39.0405039 14.7175523 39.9568793 14.7175523 38.5720494 17.9088992 37.9161653 17.9088992 36.5521078 14.7175523 37.4708708 14.7175523 38.2525834 16.6564975"></polyline>
            <polygon id="Fill-40" fill="#FFFFFE" points="40.5814853 17.9081948 41.4243214 17.9081948 41.4243214 14.7175523 40.5814853 14.7175523"></polygon>
            <g id="Group-44" transform="translate(42.3992, 14.6121)">
                <mask id="mask-2" fill="white">
                    <use xlink:href="#path-1"></use>
                </mask>
                <g id="Clip-42"></g>
                <path d="M0.842836132,1.53603524 L0.924732107,1.53603524 C0.993496075,1.53603524 1.06273757,1.53133932 1.13269536,1.52241708 C1.20289191,1.51326003 1.26568678,1.49471115 1.32203503,1.46653564 C1.37766699,1.43836012 1.42350964,1.3984448 1.45836915,1.34678969 C1.49370619,1.29466498 1.51113594,1.22586976 1.51113594,1.13876046 C1.51113594,1.05212075 1.49370619,0.982621139 1.45836915,0.930261637 C1.42350964,0.877902136 1.37766699,0.837517229 1.32203503,0.809106916 C1.26568678,0.7809314 1.20289191,0.762382518 1.13269536,0.753695067 C1.06273757,0.744538024 0.993496075,0.739842105 0.924732107,0.739842105 L0.842836132,0.739842105 L0.842836132,1.53603524 Z M2.69826944,3.29653543 L1.64747006,3.29653543 L0.853102974,2.0690221 L0.842836132,2.0690221 L0.842836132,3.29653543 L0,3.29653543 L0,0.105658187 L1.2609115,0.105658187 C1.42064447,0.105658187 1.56963307,0.124911457 1.70739977,0.163417996 C1.84564399,0.202159331 1.96502588,0.261327916 2.0657842,0.341158546 C2.16678127,0.421223972 2.24557332,0.522655832 2.30311539,0.645923716 C2.3604187,0.769426397 2.38930911,0.916408675 2.38930911,1.08734014 C2.38930911,1.19745945 2.37402823,1.30264805 2.3432277,1.40243634 C2.31242718,1.50245942 2.2668233,1.59215148 2.20641606,1.67198211 C2.14624759,1.75204754 2.07199205,1.81966878 1.98364946,1.87484583 C1.89554562,1.92955329 1.79383225,1.96782503 1.67922564,1.98825228 L2.69826944,3.29653543 L2.69826944,3.29653543 Z" id="Fill-41" fill="#FFFFFE" mask="url(#mask-2)"></path>
                <path d="M4.89632877,0.803941405 C4.77002273,0.803941405 4.65183466,0.827186206 4.54104827,0.873206216 C4.43026188,0.919695819 4.33332378,0.981447159 4.24975646,1.05939942 C4.16666667,1.13735168 4.1005291,1.22680895 4.05253758,1.32800601 C4.00406853,1.42943787 3.97995339,1.53509606 3.97995339,1.64545017 C3.97995339,1.78280581 4.00406853,1.91006522 4.05253758,2.02675882 C4.1005291,2.14298283 4.16666667,2.24324071 4.24975646,2.32847164 C4.33332378,2.41323299 4.43026188,2.47874107 4.54104827,2.52640465 C4.65183466,2.57430303 4.77002273,2.59801742 4.89632877,2.59801742 C5.02215728,2.59801742 5.14106164,2.57430303 5.25256432,2.52640465 C5.36382824,2.47874107 5.46076634,2.41323299 5.5433786,2.32847164 C5.6264684,2.24324071 5.69165091,2.14298283 5.74011995,2.02675882 C5.78835024,1.91006522 5.81246538,1.78280581 5.81246538,1.64545017 C5.81246538,1.53509606 5.78835024,1.42943787 5.74011995,1.32800601 C5.69165091,1.22680895 5.6264684,1.13735168 5.5433786,1.05939942 C5.46076634,0.981447159 5.36382824,0.919695819 5.25256432,0.873206216 C5.14106164,0.827186206 5.02215728,0.803941405 4.89632877,0.803941405 M4.89632877,0 C5.05176399,0 5.20433404,0.0185488817 5.35332264,0.0551770532 C5.50255,0.0915704287 5.64365939,0.143695134 5.77665081,0.211316374 C5.909881,0.278702818 6.03236682,0.360881408 6.14434703,0.45808694 C6.256566,0.555292472 6.35302657,0.664472598 6.43348996,0.786566503 C6.51419212,0.908425612 6.57722576,1.04085054 6.62282964,1.18454567 C6.66819475,1.32777122 6.69111608,1.47968421 6.69111608,1.64098904 C6.69111608,1.90020379 6.64646725,2.13734772 6.55764713,2.35289043 C6.46834947,2.56866792 6.34419231,2.75392194 6.18469811,2.90888729 C6.02472638,3.06432222 5.83514794,3.18477255 5.61596279,3.27164706 C5.39653888,3.35828677 5.15682005,3.40195882 4.89632877,3.40195882 C4.72250874,3.40195882 4.55752297,3.38247076 4.4011327,3.34279024 C4.24521995,3.30381411 4.1005291,3.24769787 3.96825397,3.17444153 C3.83597884,3.10165478 3.71611942,3.0131367 3.60915325,2.90888729 C3.50194831,2.80487267 3.41074055,2.68747468 3.33576872,2.55669333 C3.26103566,2.42591197 3.20325483,2.28339082 3.16266499,2.12983425 C3.12183638,1.97651248 3.10154146,1.81332928 3.10154146,1.64098904 C3.10154146,1.47968421 3.12446278,1.32777122 3.16958914,1.18454567 C3.21519302,1.04085054 3.27870418,0.908425612 3.36012263,0.786566503 C3.44130231,0.664472598 3.53752412,0.555292472 3.64878804,0.45808694 C3.76029072,0.360881408 3.88253777,0.278702818 4.0155292,0.211316374 C4.14875938,0.143695134 4.28986878,0.0915704287 4.43909614,0.0551770532 C4.5883235,0.0185488817 4.74065479,0 4.89632877,0" id="Fill-43" fill="#FFFFFE" mask="url(#mask-2)"></path>
            </g>
            <polyline id="Fill-45" fill="#FFFFFE" points="49.9866292 14.7177871 50.8294654 14.7177871 52.3761771 16.6687068 52.3845338 16.6687068 52.3845338 14.7177871 53.2271312 14.7177871 53.2271312 17.9086644 52.3845338 17.9086644 50.839971 15.9537531 50.8294654 15.9537531 50.8294654 17.9086644 49.9866292 17.9086644 49.9866292 14.7177871"></polyline>
            <polyline id="Fill-46" fill="#FFFFFE" points="54.5498825 14.7177871 55.3800642 14.7177871 56.0400073 16.4228755 56.7355261 14.7177871 57.5762134 14.7177871 58.0659179 17.9086644 57.2233205 17.9086644 56.9855118 16.0713859 56.9771551 16.0713859 56.1975914 17.9086644 55.8633221 17.9086644 55.1171853 16.0713859 55.1090673 16.0713859 54.8378316 17.9086644 53.9997708 17.9086644 54.5498825 14.7177871"></polyline>
            <polyline id="Fill-47" fill="#FFFFFE" points="59.6918992 15.4205315 59.6918992 15.9537531 60.6440892 15.9537531 60.6440892 16.6564975 59.6918992 16.6564975 59.6918992 17.2061548 60.6961397 17.2061548 60.6961397 17.9084296 58.8490631 17.9084296 58.8490631 14.7175523 60.6961397 14.7175523 60.6961397 15.4205315 59.6918992 15.4205315"></polyline>
            <polyline id="Fill-48" fill="#FFFFFE" points="61.6433156 14.7177871 62.4863905 14.7177871 64.0328634 16.6687068 64.0409814 16.6687068 64.0409814 14.7177871 64.8840563 14.7177871 64.8840563 17.9086644 64.0409814 17.9086644 62.4966573 15.9537531 62.4863905 15.9537531 62.4863905 17.9086644 61.6433156 17.9086644 61.6433156 14.7177871"></polyline>
            <polyline id="Fill-49" fill="#FFFFFE" points="67.1045594 17.9086644 66.2619621 17.9086644 66.2619621 15.4205315 65.5640555 15.4205315 65.5640555 14.7177871 67.802466 14.7177871 67.802466 15.4205315 67.1045594 15.4205315 67.1045594 17.9086644"></polyline>
            <path d="M69.6939526,15.7034606 L69.6855959,15.7034606 L69.336762,16.7201272 L70.0384887,16.7201272 L69.6939526,15.7034606 Z M69.103251,17.3545459 L68.8807232,17.9086644 L67.985359,17.9086644 L69.2338548,14.7177871 L70.1542892,14.7177871 L71.377476,17.9086644 L70.4778141,17.9086644 L70.2657918,17.3545459 L69.103251,17.3545459 L69.103251,17.3545459 Z" id="Fill-50" fill="#FFFFFE"></path>
            <polyline id="Fill-51" fill="#FFFFFE" points="72.9669264 17.2061548 73.9800011 17.2061548 73.9800011 17.9088992 72.1240903 17.9088992 72.1240903 14.7175523 72.9669264 14.7175523 72.9669264 17.2061548"></polyline>
            <path d="M78.3734934,15.5381642 C78.2949401,15.4750041 78.2080301,15.4238186 78.1130021,15.3853121 C78.0172578,15.3465707 77.9179321,15.3273175 77.8143086,15.3273175 C77.7749126,15.3273175 77.7345615,15.3331874 77.6923003,15.3437532 C77.6505167,15.3550234 77.6113594,15.3716939 77.5760224,15.3935299 C77.5399691,15.4158355 77.5103623,15.4435415 77.487441,15.4773521 C77.4645197,15.5111627 77.4528203,15.549904 77.4528203,15.5938109 C77.4528203,15.6407701 77.4654748,15.6809202 77.4907837,15.7137916 C77.5158539,15.7468979 77.5476095,15.7750734 77.5853342,15.798553 C77.6230589,15.8217978 77.6636487,15.8417554 77.7071037,15.8574868 C77.7503199,15.8734529 77.790671,15.8868363 77.8272019,15.8976369 L78.0411342,15.961971 C78.1547858,15.9950772 78.2600806,16.0342881 78.3574962,16.0807777 C78.4546731,16.1267977 78.539673,16.1843228 78.6108246,16.2533528 C78.6824537,16.322148 78.7385632,16.403857 78.7803469,16.498245 C78.8211755,16.5923982 78.8421867,16.7046306 78.8421867,16.8340032 C78.8421867,16.9124251 78.8369339,16.9915513 78.8264283,17.0704428 C78.8159227,17.1498038 78.7975379,17.2265821 78.7717514,17.3010124 C78.7457261,17.3754427 78.7111054,17.4461163 78.6676504,17.5130332 C78.6241954,17.5797152 78.569996,17.639823 78.5055298,17.6935913 C78.3782687,17.7999538 78.2345329,17.8762625 78.0738449,17.9229869 C77.9133956,17.9701809 77.7503199,17.9934257 77.5853342,17.9934257 C77.3807136,17.9934257 77.1808683,17.9612587 76.9865146,17.8971594 C76.7916834,17.8330601 76.6109392,17.7440724 76.4445208,17.6297268 L76.8055317,16.9598538 C76.8590148,17.0058739 76.914408,17.0483719 76.9717113,17.0882872 C77.0290146,17.1282026 77.0894218,17.1631872 77.1519779,17.1937106 C77.2157278,17.2237645 77.2801941,17.2477137 77.3477642,17.2648538 C77.4148568,17.2819939 77.4843371,17.2909162 77.5559662,17.2909162 C77.6049128,17.2909162 77.6540981,17.2845767 77.7030447,17.2723673 C77.7517525,17.2596883 77.7959238,17.240435 77.834126,17.2143727 C77.8730445,17.1878407 77.9043226,17.1547345 77.9279602,17.1141148 C77.9518366,17.0732603 77.963536,17.0248923 77.963536,16.9685413 C77.963536,16.9105467 77.9453899,16.8614743 77.9088591,16.8217938 C77.872567,16.7816437 77.8279182,16.7473635 77.7751514,16.7189532 C77.7228621,16.6910125 77.6674689,16.6680025 77.6084943,16.6499232 C77.5495196,16.6323135 77.4977079,16.6170517 77.4528203,16.6046075 C77.3198289,16.567275 77.1992531,16.5285336 77.0913319,16.4888531 C76.9836495,16.448703 76.8917254,16.3961087 76.8150822,16.3308354 C76.7386778,16.2655622 76.6794644,16.182914 76.6376807,16.0838301 C76.5954196,15.9845114 76.5741696,15.8577216 76.5741696,15.7032258 C76.5741696,15.5423906 76.6018662,15.3956431 76.6570206,15.2632182 C76.7128913,15.131028 76.7904896,15.018326 76.8895765,14.9253468 C76.989141,14.8326024 77.1070903,14.76052 77.2436632,14.7093345 C77.3804749,14.6583837 77.529941,14.6330258 77.6923003,14.6330258 C77.7737188,14.6330258 77.8589575,14.6391305 77.9487326,14.6515747 C78.0382691,14.6640188 78.1273279,14.6816285 78.2156705,14.704169 C78.3040131,14.7269442 78.3902069,14.7546501 78.474013,14.7870519 C78.5580578,14.8194538 78.6366111,14.8556124 78.7096728,14.8955277 L78.3734934,15.5381642" id="Fill-52" fill="#FFFFFE"></path>
            <path d="M81.9597253,15.788222 C81.9165091,15.7302273 81.8666075,15.679981 81.8116918,15.6365438 C81.7565374,15.5928717 81.6968464,15.5564783 81.6328577,15.5266592 C81.5693466,15.4970749 81.5024927,15.4752389 81.4322961,15.4597424 C81.3625771,15.4444807 81.2914255,15.4369672 81.2197964,15.4369672 C81.0911027,15.4369672 80.9736309,15.4597424 80.8671423,15.505058 C80.7604149,15.5506084 80.6692071,15.613299 80.5939965,15.6931296 C80.5180696,15.7729602 80.4593338,15.8666438 80.4173113,15.9744152 C80.3752889,16.0819517 80.3542777,16.1977061 80.3542777,16.3214436 C80.3542777,16.4482334 80.3752889,16.5644574 80.4173113,16.6705852 C80.4593338,16.776713 80.5185472,16.8682834 80.5956679,16.9445921 C80.6727886,17.0209008 80.7654289,17.0807738 80.8731114,17.1244458 C80.9810326,17.1676483 81.100892,17.1892495 81.2326896,17.1892495 C81.3012148,17.1892495 81.3695013,17.1815012 81.4375489,17.1657699 C81.5055966,17.149569 81.5707791,17.1270286 81.6328577,17.0976791 C81.6956526,17.0680948 81.7543885,17.032171 81.8093041,16.9910817 C81.8646973,16.9497576 81.9153153,16.9030332 81.9597253,16.8504389 L81.9597253,17.8445651 C81.8895288,17.8652271 81.8241075,17.8847152 81.7622677,17.9034989 C81.7006666,17.9218129 81.6404982,17.9380139 81.5815235,17.9509276 C81.5227876,17.9640762 81.4633354,17.974642 81.4038833,17.9821555 C81.3444311,17.989669 81.281875,17.9934257 81.2159762,17.9934257 C80.988673,17.9934257 80.771398,17.9525712 80.563196,17.8715666 C80.3552327,17.7903272 80.1663706,17.674338 79.9968483,17.5240686 C79.8175367,17.3644073 79.6859779,17.18291 79.601933,16.9795767 C79.5178882,16.7764782 79.4761045,16.5555352 79.4761045,16.3172173 C79.4761045,16.0983874 79.5164556,15.8880102 79.5976353,15.6870249 C79.678815,15.4858047 79.7979581,15.3068902 79.9550647,15.1495769 C80.0348118,15.0697463 80.1226768,14.9976639 80.217466,14.9335646 C80.3127328,14.8699349 80.4134911,14.8152274 80.5192635,14.7703814 C80.6252746,14.7257702 80.7343896,14.69149 80.8480412,14.6680104 C80.9616927,14.6447656 81.0751055,14.6330258 81.1885183,14.6330258 C81.3246137,14.6330258 81.455695,14.6471135 81.5815235,14.6755238 C81.7075908,14.7036994 81.8341356,14.7431451 81.9597253,14.7940958 L81.9597253,15.788222" id="Fill-53" fill="#FFFFFE"></path>
            <polygon id="Fill-54" fill="#FFFFFE" points="82.911199 17.9081948 83.7542739 17.9081948 83.7542739 14.7175523 82.911199 14.7175523"></polygon>
            <polyline id="Fill-55" fill="#FFFFFE" points="85.5719825 15.4205315 85.5719825 15.9537531 86.5236949 15.9537531 86.5236949 16.6564975 85.5719825 16.6564975 85.5719825 17.2061548 86.5764617 17.2061548 86.5764617 17.9084296 84.7291464 17.9084296 84.7291464 14.7175523 86.5764617 14.7175523 86.5764617 15.4205315 85.5719825 15.4205315"></polyline>
            <polyline id="Fill-56" fill="#FFFFFE" points="87.6074437 14.7177871 88.4502798 14.7177871 89.9972303 16.6687068 90.0051095 16.6687068 90.0051095 14.7177871 90.8484232 14.7177871 90.8484232 17.9086644 90.0051095 17.9086644 88.4610242 15.9537531 88.4502798 15.9537531 88.4502798 17.9086644 87.6074437 17.9086644 87.6074437 14.7177871"></polyline>
            <path d="M94.0545432,15.788222 C94.011327,15.7302273 93.9616641,15.679981 93.9065097,15.6365438 C93.8513552,15.5928717 93.7916643,15.5564783 93.7276756,15.5266592 C93.6644032,15.4970749 93.5970718,15.4752389 93.5268753,15.4597424 C93.4571562,15.4444807 93.3864822,15.4369672 93.314853,15.4369672 C93.1861593,15.4369672 93.0684488,15.4597424 92.9617214,15.505058 C92.8552327,15.5506084 92.764025,15.613299 92.6888144,15.6931296 C92.6128875,15.7729602 92.5541516,15.8666438 92.5121292,15.9744152 C92.4701068,16.0819517 92.4490956,16.1977061 92.4490956,16.3214436 C92.4490956,16.4482334 92.4701068,16.5644574 92.5121292,16.6705852 C92.5541516,16.776713 92.613365,16.8682834 92.6904857,16.9445921 C92.7678452,17.0209008 92.8602468,17.0807738 92.968168,17.1244458 C93.076328,17.1676483 93.1957099,17.1892495 93.3275075,17.1892495 C93.3962715,17.1892495 93.4643191,17.1815012 93.5323668,17.1657699 C93.6001757,17.149569 93.6653582,17.1270286 93.7276756,17.0976791 C93.7902317,17.0680948 93.8492063,17.032171 93.904122,16.9910817 C93.9595152,16.9497576 94.0098944,16.9030332 94.0545432,16.8504389 L94.0545432,17.8445651 C93.9841079,17.8652271 93.9186866,17.8847152 93.8568468,17.9034989 C93.7952457,17.9218129 93.7350773,17.9380139 93.6763414,17.9509276 C93.6176055,17.9640762 93.5581533,17.974642 93.4984624,17.9821555 C93.4390102,17.989669 93.3766928,17.9934257 93.310794,17.9934257 C93.0834909,17.9934257 92.8659771,17.9525712 92.6580139,17.8715666 C92.4500506,17.7903272 92.2611885,17.674338 92.091905,17.5240686 C91.9123546,17.3644073 91.780557,17.18291 91.6965121,16.9795767 C91.6124673,16.7764782 91.5706836,16.5555352 91.5706836,16.3172173 C91.5706836,16.0983874 91.6110347,15.8880102 91.6922144,15.6870249 C91.7736328,15.4858047 91.8930147,15.3068902 92.0496438,15.1495769 C92.1296296,15.0697463 92.2172559,14.9976639 92.3122839,14.9335646 C92.4075507,14.8699349 92.5080702,14.8152274 92.6138426,14.7703814 C92.7198537,14.7257702 92.8294463,14.69149 92.9430978,14.6680104 C93.0565106,14.6447656 93.1696846,14.6330258 93.283575,14.6330258 C93.4191928,14.6330258 93.5502741,14.6471135 93.6763414,14.6755238 C93.8026474,14.7036994 93.9287147,14.7431451 94.0545432,14.7940958 L94.0545432,15.788222" id="Fill-57" fill="#FFFFFE"></path>
            <polyline id="Fill-58" fill="#FFFFFE" points="95.8459878 15.4205315 95.8459878 15.9537531 96.7981778 15.9537531 96.7981778 16.6564975 95.8459878 16.6564975 95.8459878 17.2061548 96.8502283 17.2061548 96.8502283 17.9084296 95.0031517 17.9084296 95.0031517 14.7175523 96.8502283 14.7175523 96.8502283 15.4205315 95.8459878 15.4205315"></polyline>
            <path d="M99.5313067,15.5381642 C99.4527534,15.4750041 99.3658434,15.4238186 99.2705767,15.3853121 C99.1753099,15.3465707 99.0762229,15.3273175 98.9723607,15.3273175 C98.9329647,15.3273175 98.8923748,15.3331874 98.8503524,15.3437532 C98.80833,15.3550234 98.7694115,15.3716939 98.7338357,15.3935299 C98.6982599,15.4158355 98.6684144,15.4435415 98.6452543,15.4773521 C98.622333,15.5111627 98.6106336,15.549904 98.6106336,15.5938109 C98.6106336,15.6407701 98.6232881,15.6809202 98.6488358,15.7137916 C98.673906,15.7468979 98.705184,15.7750734 98.7433862,15.798553 C98.7808722,15.8217978 98.821462,15.8417554 98.864917,15.8574868 C98.908372,15.8734529 98.9482456,15.8868363 98.9850152,15.8976369 L99.1989475,15.961971 C99.3125991,15.9950772 99.4181327,16.0342881 99.5155483,16.0807777 C99.6129639,16.1267977 99.6974863,16.1843228 99.7686379,16.2533528 C99.840267,16.322148 99.8966153,16.403857 99.9376827,16.498245 C99.9792276,16.5923982 100,16.7046306 100,16.8340032 C100,16.9124251 99.9945084,16.9915513 99.9840028,17.0704428 C99.973736,17.1498038 99.9553512,17.2265821 99.9295647,17.3010124 C99.9033007,17.3754427 99.8689187,17.4461163 99.8254637,17.5130332 C99.7820087,17.5797152 99.7280481,17.639823 99.6638206,17.6935913 C99.536082,17.7999538 99.3923462,17.8762625 99.2316582,17.9229869 C99.0714477,17.9701809 98.908372,17.9934257 98.7433862,17.9934257 C98.5387657,17.9934257 98.3389204,17.9612587 98.1443279,17.8971594 C97.9497354,17.8330601 97.7687525,17.7440724 97.6023342,17.6297268 L97.9635837,16.9598538 C98.0168281,17.0058739 98.0719825,17.0483719 98.1295246,17.0882872 C98.1868279,17.1282026 98.2472351,17.1631872 98.3102688,17.1937106 C98.3735412,17.2237645 98.4384849,17.2477137 98.5058163,17.2648538 C98.5729089,17.2819939 98.6421504,17.2909162 98.7137795,17.2909162 C98.7627261,17.2909162 98.8119114,17.2845767 98.860858,17.2723673 C98.9098046,17.2596883 98.9537371,17.240435 98.9921781,17.2143727 C99.0308578,17.1878407 99.0616584,17.1547345 99.0857735,17.1141148 C99.1094111,17.0732603 99.1215881,17.0248923 99.1215881,16.9685413 C99.1215881,16.9105467 99.103442,16.8614743 99.0669112,16.8217938 C99.0303803,16.7816437 98.9859702,16.7473635 98.9332034,16.7189532 C98.8809142,16.6910125 98.8252822,16.6680025 98.7665463,16.6499232 C98.7078104,16.6323135 98.6555212,16.6170517 98.6106336,16.6046075 C98.4776422,16.567275 98.3570665,16.5285336 98.249384,16.4888531 C98.141224,16.448703 98.0490612,16.3961087 97.9731343,16.3308354 C97.8962524,16.2655622 97.8372777,16.182914 97.7950165,16.0838301 C97.7534716,15.9845114 97.7324604,15.8577216 97.7324604,15.7032258 C97.7324604,15.5423906 97.7599182,15.3956431 97.8150727,15.2632182 C97.8707046,15.131028 97.9483029,15.018326 98.0476286,14.9253468 C98.1471931,14.8326024 98.2649036,14.76052 98.4014765,14.7093345 C98.5385269,14.6583837 98.687993,14.6330258 98.8503524,14.6330258 C98.9315321,14.6330258 99.0170095,14.6391305 99.1067847,14.6515747 C99.1965599,14.6640188 99.28538,14.6816285 99.3737226,14.704169 C99.4618264,14.7269442 99.5482589,14.7546501 99.632065,14.7870519 C99.7158711,14.8194538 99.7944244,14.8556124 99.8674861,14.8955277 L99.5313067,15.5381642" id="Fill-59" fill="#FFFFFE"></path>
        </g>
    </g>
</svg>