<?xml version="1.0" encoding="UTF-8"?>
<svg width="93px" height="16px" viewBox="0 0 93 16" version="1.1" xmlns="http://www.w3.org/2000/svg" xmlns:xlink="http://www.w3.org/1999/xlink">
    <title>UCDAVIS</title>
    <g id="Symbols" stroke="none" stroke-width="1" fill="none" fill-rule="evenodd">
        <g id="Header" transform="translate(-1207.000000, -35.000000)" fill="#FFFFFF">
            <g id="UCDAVIS" transform="translate(1207.000000, 35.000000)">
                <path d="M80.7815533,13.960308 L82.2568545,10.0572532 L82.514335,10.2786752 C83.420024,11.0181569 84.6485496,11.6466459 85.808902,11.6711544 C86.8461483,11.695663 87.3532215,11.4193081 87.2151849,10.5417898 C87.1123618,9.88625689 86.3723166,9.77075689 85.9105984,9.67948372 L84.8956069,9.47693616 C82.9214021,9.10818129 81.2618643,7.89036058 81.2618643,5.58430452 C81.2618643,2.09733141 84.2682447,0.141719247 87.2918093,0.141719247 C88.8817654,0.141719247 90.3376288,0.54596924 91.702219,1.43306557 L90.4212958,4.89158624 C89.7187178,4.38563991 88.6547093,3.67348382 87.3075849,3.62418504 C86.864741,3.6072826 85.8517215,3.83969113 86.1765301,4.86876795 C86.3162569,5.30682282 86.9444642,5.49077769 87.3301215,5.58430452 L88.4746983,5.86065939 C90.6151105,6.35871792 92.1633739,7.57682034 92.1633739,10.0659862 C92.1633739,13.5718337 89.138119,15.3071507 86.1320203,15.3071507 C84.3795191,15.3071507 82.3486911,14.8085288 80.7815533,13.960308" id="Fill-1"></path>
                <polygon id="Fill-2" points="74.6318827 15.087419 79.6927546 15.087419 79.6927546 0.380888755 74.6318827 0.380888755"></polygon>
                <polyline id="Fill-3" points="68.8273035 0.380888755 74.1025547 0.380888755 68.7154657 15.087419 64.4360499 15.087419 59.0675537 0.380888755 64.3236487 0.380888755 66.5764621 9.2549508 68.8273035 0.380888755"></polyline>
                <path d="M46.5760881,15.087419 L51.926555,15.087419 L52.3319319,13.2405459 L56.1510379,13.2405459 L56.6583928,15.087419 L62.0097049,15.087419 L56.9992586,0.380888755 L51.3882124,0.380888755 L46.5760881,15.087419 Z M54.2506404,4.62565454 L54.2506404,4.62565454 C54.3441672,5.2521716 55.2650684,9.75244591 55.2650684,9.75244591 L53.2426916,9.75244591 L54.2506404,4.62565454 L54.2506404,4.62565454 Z" id="Fill-4"></path>
                <path d="M38.5319358,10.8646264 L38.878154,10.8646264 C40.5754406,10.8646264 41.8343906,9.84625445 41.8343906,7.92754594 C41.8343906,5.86065939 40.7182662,4.70791307 38.8542089,4.70791307 L38.5319358,4.70791307 L38.5319358,10.8646264 Z M33.439231,0.380888755 L38.6234906,0.380888755 C43.3291296,0.380888755 46.9254051,2.54130213 46.9254051,7.94613863 C46.9254051,12.301052 43.9933954,15.087419 39.8784967,15.087419 L33.439231,15.0792495 L33.439231,0.380888755 L33.439231,0.380888755 Z" id="Fill-5"></path>
                <path d="M30.3587615,0.842325332 L30.6328627,3.25486675 C30.6979371,3.82842284 31.0241542,5.20259111 30.6215944,5.01835453 C30.3677761,4.90482648 30.1604396,4.28084479 29.9528213,3.72869845 C29.8474627,3.44755456 29.3460237,2.11958629 29.2147481,2.02183385 C28.5814701,1.54715703 27.001092,1.01332167 25.9320128,1.00881435 C22.6887165,0.996419232 20.5435153,3.38811431 20.5435153,7.63259839 C20.5435153,10.6756008 22.001069,14.3282178 25.709464,14.3282178 C27.0379957,14.3282178 29.5829396,13.9098824 30.2759396,12.0199081 C30.5880713,11.1640813 30.875131,10.4045983 31.0827493,10.6341898 C31.2357164,10.8034959 31.0362676,11.4883264 30.9438676,11.8567995 C30.5066578,13.6098641 30.4829944,14.140319 30.3443944,14.2084922 C28.669081,15.0488251 26.5207811,15.3260251 24.6398214,15.3260251 C18.6614288,15.3260251 16.5953873,11.8382069 16.5953873,8.35207886 C16.5953873,2.30016067 20.3130787,-0.20449904 26.0779372,0.0129790049 C27.5346457,0.0670668088 28.9927627,0.326519243 30.3587615,0.842325332" id="Fill-7"></path>
                <path d="M12.7019106,1.11022899 L11.7455143,0.776124114 C11.4229594,0.486810704 11.8148143,0.406242413 11.8148143,0.406242413 C11.8148143,0.406242413 13.1985606,0.66231436 16.6469398,0.371310706 C16.6469398,0.371310706 16.9463947,0.430187534 16.7384947,0.673300945 L15.6082849,1.15755581 C14.8713386,1.47898386 14.8713386,1.29446557 14.8713386,2.10183873 L14.8648593,9.59666177 C14.8648593,15.4581458 8.90167894,15.3260251 7.73935457,15.3260251 C7.18664482,15.3260251 1.76096199,15.3260251 1.76096199,10.6203861 L1.76096199,2.68778993 C1.76096199,1.30376191 1.90857662,1.34151069 1.44883029,1.17868386 L0.0650839693,0.659215579 C0.0650839693,0.659215579 -0.168169685,0.328209487 0.24847543,0.349337536 C1.37896687,0.406242413 3.01681319,0.649074116 6.82211556,0.371310706 C6.82211556,0.371310706 7.15593873,0.452160705 6.93677044,0.694428993 L5.83050582,1.0181107 C4.95383267,1.41052898 5.06989608,1.11022899 5.04623266,2.00972043 L5.07327657,9.83188737 C5.07327657,11.7505959 6.0606607,14.1245434 9.12281918,14.1245434 C13.3489923,14.1245434 13.3884313,10.4699544 13.3884313,9.65779226 L13.3957557,1.90802409 C13.4408289,1.17868386 13.3489923,1.38686557 12.7019106,1.11022899" id="Fill-8"></path>
            </g>
        </g>
    </g>
</svg>